<svg width="26" height="26" viewBox="0 0 26 26" fill="none" xmlns="http://www.w3.org/2000/svg">
<path d="M5.5 17.9805C7.33594 20.6758 9.83594 22.0234 13 22.0234C16.1641 22.0234 18.6641 20.6758 20.5 17.9805C20.4609 16.8867 19.582 15.9688 17.8633 15.2266C16.1445 14.4844 14.5234 14.1133 13 14.1133C11.4766 14.1133 9.85547 14.4844 8.13672 15.2266C6.41797 15.9297 5.53906 16.8477 5.5 17.9805ZM15.6367 5.38281C14.8945 4.64062 14.0156 4.26953 13 4.26953C11.9844 4.26953 11.1055 4.64062 10.3633 5.38281C9.62109 6.125 9.25 7.00391 9.25 8.01953C9.25 9.03516 9.62109 9.91406 10.3633 10.6562C11.1055 11.3984 11.9844 11.7695 13 11.7695C14.0156 11.7695 14.8945 11.3984 15.6367 10.6562C16.3789 9.91406 16.75 9.03516 16.75 8.01953C16.75 7.00391 16.3789 6.125 15.6367 5.38281ZM4.15234 4.21094C6.61328 1.75 9.5625 0.519531 13 0.519531C16.4375 0.519531 19.3672 1.75 21.7891 4.21094C24.25 6.63281 25.4805 9.5625 25.4805 13C25.4805 16.4375 24.25 19.3867 21.7891 21.8477C19.3672 24.2695 16.4375 25.4805 13 25.4805C9.5625 25.4805 6.61328 24.2695 4.15234 21.8477C1.73047 19.3867 0.519531 16.4375 0.519531 13C0.519531 9.5625 1.73047 6.63281 4.15234 4.21094Z" fill="#FBFBFB"/>
</svg>
