<svg width="12" height="12" viewBox="0 0 12 12" fill="none" xmlns="http://www.w3.org/2000/svg">
<path d="M11.2501 0.758431C10.9251 0.433431 10.4001 0.433431 10.0751 0.758431L6.0001 4.8251L1.9251 0.750098C1.6001 0.425098 1.0751 0.425098 0.750098 0.750098C0.425098 1.0751 0.425098 1.6001 0.750098 1.9251L4.8251 6.0001L0.750098 10.0751C0.425098 10.4001 0.425098 10.9251 0.750098 11.2501C1.0751 11.5751 1.6001 11.5751 1.9251 11.2501L6.0001 7.1751L10.0751 11.2501C10.4001 11.5751 10.9251 11.5751 11.2501 11.2501C11.5751 10.9251 11.5751 10.4001 11.2501 10.0751L7.1751 6.0001L11.2501 1.9251C11.5668 1.60843 11.5668 1.0751 11.2501 0.758431Z" fill="#4F4F4F"/>
</svg>
