<svg width="49" height="22" viewBox="0 0 49 22" fill="none" xmlns="http://www.w3.org/2000/svg">
<g clip-path="url(#clip0)">
<path d="M27.7424 5.06623L29.9889 4.15989C30.126 3.43471 30.6771 2.8541 31.3863 2.6739L31.5078 1.27395C31.5251 1.07426 31.6591 0.903799 31.8491 0.839829C32.0391 0.775859 32.2489 0.830418 32.3835 0.978973L32.9712 1.62719L33.3318 0.365094C33.3919 0.154923 33.5806 0.00737689 33.799 -0.000241274C34.0174 -0.0070192 34.216 0.126243 34.2905 0.331821L37.4014 8.91402C39.6392 9.49513 41.5934 10.9271 42.7936 12.8757C43.893 14.6605 44.2344 16.7053 43.7551 18.6333C43.475 19.7602 42.9431 20.5028 42.399 20.9896H42.8269C42.831 20.9896 42.835 20.9897 42.839 20.9898C44.8632 21.0392 46.739 19.8884 47.6149 18.0598C47.7351 17.8087 48.0362 17.7027 48.2873 17.8229C48.5385 17.9432 48.6445 18.2442 48.5242 18.4954C47.4985 20.6366 45.3269 21.9996 42.9626 21.9996C42.9154 21.9996 33.3375 21.9996 33.3375 21.9996C33.059 21.9996 32.8333 21.7739 32.8333 21.4954C32.8333 20.1384 33.9157 19.5198 34.871 19.2928C34.4243 18.422 34.3858 17.6561 34.4364 17.1551L34.3046 17.1375L31.283 21.7708C31.1899 21.9135 31.0311 21.9995 30.8607 21.9995H29.0259C28.8423 21.9995 28.6732 21.8997 28.5845 21.739C28.4958 21.5783 28.5015 21.382 28.5994 21.2266C28.6189 21.1957 30.5132 18.188 31.5316 16.504V8.033C31.3817 8.05025 31.2134 8.05893 31.0647 8.05893C29.6022 8.05893 28.2267 7.23382 27.4861 5.7708C27.4855 5.76962 27.4665 5.72996 27.4635 5.72234C27.3593 5.46417 27.4842 5.17036 27.7424 5.06623Z" fill="#008080"/>
</g>
<g clip-path="url(#clip1)">
<path d="M12.5404 9.6844L14.1742 9.02524C14.2739 8.49784 14.6747 8.07558 15.1905 7.94452L15.2788 6.92638C15.2915 6.78114 15.3889 6.65718 15.5271 6.61065C15.6653 6.56413 15.8179 6.60381 15.9158 6.71185L16.3432 7.18328L16.6054 6.26539C16.6491 6.11254 16.7863 6.00523 16.9452 5.99969C17.104 5.99476 17.2484 6.09168 17.3027 6.24119L19.5651 12.4828C21.1926 12.9054 22.6138 13.9469 23.4867 15.364C24.2863 16.662 24.5346 18.1492 24.186 19.5514C23.9823 20.3709 23.5954 20.911 23.1998 21.2651H23.511C23.5139 21.2651 23.5168 21.2651 23.5198 21.2652C24.9918 21.3011 26.3561 20.4641 26.9931 19.1343C27.0806 18.9516 27.2995 18.8745 27.4822 18.962C27.6648 19.0495 27.7419 19.2684 27.6544 19.451C26.9085 21.0083 25.3291 21.9995 23.6096 21.9995C23.5753 21.9995 16.6095 21.9995 16.6095 21.9995C16.407 21.9995 16.2429 21.8354 16.2429 21.6329C16.2429 20.646 17.0301 20.1961 17.7248 20.031C17.4 19.3977 17.3719 18.8407 17.4087 18.4763L17.3129 18.4635L15.1154 21.8332C15.0477 21.9369 14.9322 21.9995 14.8082 21.9995H13.4738C13.3403 21.9995 13.2173 21.9269 13.1529 21.81C13.0883 21.6931 13.0925 21.5504 13.1637 21.4374C13.1778 21.4149 14.5555 19.2275 15.2962 18.0028V11.842C15.1871 11.8546 15.0647 11.8609 14.9566 11.8609C13.893 11.8609 12.8926 11.2608 12.354 10.1968C12.3536 10.196 12.3398 10.1671 12.3376 10.1616C12.2618 9.97381 12.3526 9.76013 12.5404 9.6844Z" fill="#58F2F2"/>
</g>
<g clip-path="url(#clip2)">
<path d="M0.405065 12.7632L1.6304 12.2688C1.70523 11.8733 2.00582 11.5566 2.39263 11.4583L2.45891 10.6947C2.46838 10.5857 2.54146 10.4928 2.64507 10.4579C2.74871 10.423 2.86317 10.4527 2.93659 10.5338L3.25716 10.8873L3.45384 10.1989C3.48659 10.0843 3.58953 10.0038 3.70869 9.99965C3.82779 9.99595 3.9361 10.0686 3.97677 10.1808L5.67362 14.862C6.89425 15.1789 7.96013 15.96 8.61481 17.0229C9.21446 17.9964 9.40072 19.1117 9.13927 20.1634C8.98647 20.7781 8.69636 21.1831 8.39959 21.4487H8.63299C8.63519 21.4487 8.63739 21.4487 8.63959 21.4488C9.74366 21.4757 10.7668 20.848 11.2446 19.8506C11.3102 19.7136 11.4744 19.6558 11.6114 19.7214C11.7484 19.787 11.8062 19.9512 11.7406 20.0882C11.1811 21.2561 9.99661 21.9995 8.70699 21.9995C8.68126 21.9995 3.45692 21.9995 3.45692 21.9995C3.30504 21.9995 3.18194 21.8764 3.18194 21.7245C3.18194 20.9843 3.77233 20.647 4.2934 20.5231C4.04976 20.0481 4.02871 19.6304 4.05633 19.3571L3.98447 19.3475L2.33629 21.8748C2.28551 21.9526 2.19889 21.9995 2.10595 21.9995H1.10515C1.00502 21.9995 0.912781 21.9451 0.864414 21.8574C0.816016 21.7697 0.819133 21.6627 0.87251 21.5779C0.883143 21.5611 1.91642 19.9205 2.47189 19.002V14.3814C2.39013 14.3908 2.29831 14.3956 2.21722 14.3956C1.41949 14.3956 0.669234 13.9455 0.26528 13.1475C0.264944 13.1468 0.254586 13.1252 0.252936 13.1211C0.196106 12.9802 0.264211 12.82 0.405065 12.7632Z" fill="#008080"/>
</g>
<defs>
<clipPath id="clip0">
<rect width="22" height="22" fill="white" transform="matrix(-1 0 0 1 49 0)"/>
</clipPath>
<clipPath id="clip1">
<rect width="16" height="16" fill="white" transform="matrix(-1 0 0 1 28 6)"/>
</clipPath>
<clipPath id="clip2">
<rect width="12" height="12" fill="white" transform="matrix(-1 0 0 1 12 10)"/>
</clipPath>
</defs>
</svg>
