<svg width="80" height="80" viewBox="0 0 80 80" fill="none" xmlns="http://www.w3.org/2000/svg">
<rect width="80" height="80" fill="white"/>
<path d="M8.125 78.6667C8.125 79.4028 8.72193 79.9998 9.45801 79.9998H70.7919C71.528 79.9998 72.1249 79.4028 72.1249 78.6667V70.6668C72.1249 65.4147 70.2908 60.328 66.9381 56.285C67.9812 54.963 68.0569 53.1204 67.1249 51.7178C66.6854 51.0482 66.0531 50.5276 65.3115 50.2248C66.4688 49.0755 67.4734 47.7834 68.3017 46.379C69.9649 43.5109 70.8249 40.248 70.7919 36.9331C70.751 33.3101 69.9222 29.7401 68.3633 26.4692C67.5314 24.6711 66.5231 22.9603 65.353 21.3612C65.7693 14.112 64.0426 6.90003 60.3878 0.624978C60.1931 0.314308 59.8788 0.097632 59.5193 0.02561C59.1598 -0.0458014 58.7862 0.0335448 58.4872 0.245948C54.8354 2.79967 51.5639 5.85816 48.7709 9.33046C43.1258 7.57753 37.082 7.5818 31.4393 9.34206C28.6512 5.86731 25.384 2.80455 21.7359 0.245948C21.4368 0.0335448 21.0639 -0.0458014 20.7038 0.02561C20.3443 0.097632 20.03 0.314308 19.8353 0.624978C16.1701 6.90247 14.4483 14.1248 14.8871 21.3807C13.7213 22.9731 12.7167 24.6772 11.8872 26.4686C10.3278 29.7389 9.49891 33.3101 9.45801 36.9331C9.42444 40.248 10.2844 43.5103 11.947 46.3784C12.7759 47.784 13.7812 49.0768 14.939 50.2267C14.198 50.5294 13.5657 51.0488 13.1256 51.7178C12.1936 53.1204 12.2687 54.963 13.3124 56.285C9.95973 60.328 8.125 65.4147 8.125 70.6668V78.6667ZM30.9864 77.3331C31.7201 72.8202 35.5543 69.4632 40.1247 69.3332C44.6956 69.4632 48.5298 72.8202 49.2635 77.3331H30.9864ZM15.7459 54.9679C15.4517 54.7817 15.2448 54.4851 15.1722 54.1445C15.1001 53.8119 15.166 53.464 15.354 53.1808C15.6037 52.8042 16.026 52.579 16.4771 52.5808C16.7365 52.5808 16.9904 52.6553 17.2089 52.795C20.4474 54.8672 24.0052 56.3931 27.7387 57.311C31.7945 58.2846 35.9535 58.7625 40.1247 58.735C44.2928 58.7631 48.4487 58.2864 52.5014 57.3141C56.2386 56.3955 59.8 54.8684 63.0422 52.7944C63.6624 52.3959 64.4876 52.5674 64.8965 53.1802C65.0845 53.464 65.1504 53.8119 65.079 54.1445C65.0064 54.4845 64.7995 54.7811 64.5053 54.9667C61.0146 57.1994 57.181 58.8436 53.1576 59.8336C48.89 60.8578 44.5137 61.3614 40.1247 61.3333C35.7325 61.3614 31.3533 60.8566 27.0826 59.8312C23.0628 58.8424 19.2328 57.1994 15.7459 54.9679V54.9679ZM14.2493 45.0338C12.8272 42.5728 12.0935 39.7749 12.1247 36.9331C12.1662 33.6964 12.9114 30.5067 14.3079 27.5862C15.1288 25.8137 16.1383 24.1352 17.3194 22.5794C17.464 22.3866 17.555 22.1583 17.5818 21.9184C17.5885 21.8671 17.5916 21.8147 17.5916 21.7628V21.7597C17.5916 21.7091 17.5892 21.6578 17.5831 21.6071C17.1363 15.2704 18.4571 8.93312 21.3984 3.3026C24.1242 5.34424 26.6053 7.6941 28.7916 10.3052C28.5841 10.3919 28.3747 10.4706 28.1678 10.5622C27.5038 10.8655 27.2071 11.6461 27.5019 12.3145C27.7973 12.9822 28.5749 13.2886 29.2463 13.0011C36.1683 9.90298 44.0822 9.90298 51.0042 13.0011C51.6756 13.2886 52.4532 12.9822 52.7486 12.3145C53.0434 11.6461 52.7468 10.8655 52.0821 10.5622C51.8648 10.4663 51.6445 10.3827 51.426 10.2918C53.6172 7.68556 56.1001 5.33997 58.8271 3.30077C61.7764 8.9319 63.1002 15.2723 62.6516 21.6126C62.618 21.9465 62.712 22.281 62.9141 22.5489C64.1006 24.1145 65.115 25.8027 65.9408 27.5843C67.3379 30.5055 68.0832 33.6952 68.1253 36.9331C68.1564 39.7749 67.4228 42.5728 66.0006 45.0332C64.5449 47.4508 62.5393 49.4906 60.1467 50.9872C57.394 52.7145 54.3758 53.9755 51.213 54.7195C47.5832 55.5978 43.8594 56.0275 40.1247 56C36.3899 56.0281 32.6649 55.5984 29.0345 54.7201C25.8723 53.9755 22.8553 52.7151 20.1032 50.9884C17.7106 49.4918 15.705 47.4514 14.2493 45.0338V45.0338ZM10.7916 70.6668C10.791 65.9891 12.4408 61.4608 15.4499 57.8799C18.8703 59.927 22.5745 61.4572 26.4423 62.4191C30.923 63.497 35.5171 64.0274 40.1247 63.9999C44.7292 64.028 49.3203 63.4988 53.7978 62.4222C57.6687 61.4584 61.376 59.9276 64.8001 57.8799C67.8091 61.4608 69.4589 65.9891 69.4583 70.6668V77.3337L59.6865 77.3331C57.6308 72.0377 59.7561 68.9432 59.8653 68.7912C60.1498 68.4085 60.2084 67.9037 60.0192 67.4667C59.8299 67.0291 59.4222 66.7258 58.9492 66.6708C58.4756 66.6159 58.0093 66.8173 57.7248 67.2C57.5961 67.3727 54.8696 71.1484 56.8618 77.3331H51.9784C51.2032 71.3382 46.1678 66.8076 40.1247 66.6666C34.0822 66.8076 29.0467 71.3382 28.2716 77.3331H23.3875C25.3803 71.1478 22.6545 67.3721 22.5245 67.2C22.0826 66.619 21.2549 66.5018 20.6684 66.9369C20.0825 67.3727 19.9555 68.1986 20.384 68.79C20.481 68.9249 22.6246 72.0218 20.5634 77.3337H10.7916V70.6668Z" fill="#F45151"/>
<path d="M33.6618 36.2007C33.2608 37.1437 33.4652 38.235 34.18 38.9693L38.3487 43.2491C38.4823 43.384 38.6313 43.503 38.7918 43.6043V44.7823L35.1822 48.392C34.8361 48.7264 34.6969 49.2221 34.819 49.6884C34.9411 50.1547 35.3048 50.5184 35.7712 50.6405C36.2375 50.7626 36.7331 50.6234 37.0675 50.2774L40.1248 47.2201L43.1827 50.2774C43.7058 50.7821 44.5371 50.7754 45.0516 50.2609C45.5661 49.7463 45.5728 48.915 45.0681 48.392L41.4584 44.7823V43.6043C41.6196 43.503 41.7685 43.3834 41.9022 43.2485L46.0703 38.9693C46.785 38.235 46.9895 37.1437 46.5885 36.2007C46.2027 35.2742 45.2976 34.6699 44.2935 34.6675H35.9567C34.9527 34.6699 34.0475 35.2742 33.6618 36.2007V36.2007ZM43.9401 37.3341L40.1236 41.2532L36.2149 37.3341H43.9401Z" fill="#F45151"/>
<path d="M26.7897 41.3326C27.3775 41.3332 27.8963 40.9487 28.0666 40.386C28.2375 39.8238 28.0196 39.2159 27.5307 38.89C24.0663 36.8966 20.1198 35.8968 16.1244 35.9994C15.3877 35.9994 14.7908 36.5963 14.7908 37.3324C14.7908 38.0691 15.3877 38.666 16.1244 38.666C19.593 38.5836 23.0208 39.4277 26.0549 41.1111C26.2728 41.2557 26.5285 41.3326 26.7897 41.3326Z" fill="#F45151"/>
<path d="M28.1252 42.6675C25.0032 42.8176 21.9814 43.8174 19.3856 45.5588C18.9839 45.8206 18.7545 46.2778 18.7838 46.7563C18.8137 47.2348 19.0975 47.6602 19.5278 47.8714C19.9581 48.0826 20.4683 48.0466 20.8644 47.7774C23.0281 46.3364 25.5336 45.4935 28.1283 45.3348C28.8643 45.3335 29.4607 44.736 29.46 43.9993C29.4588 43.2632 28.8613 42.6669 28.1252 42.6675V42.6675Z" fill="#F45151"/>
<path d="M52.3488 40.7387C52.7577 41.3515 53.5853 41.5169 54.1981 41.1086C57.2261 39.4149 60.6563 38.5707 64.1249 38.666C64.8616 38.666 65.4586 38.069 65.4586 37.3324C65.4586 36.5963 64.8616 35.9994 64.1249 35.9994C60.1296 35.8968 56.183 36.8966 52.7186 38.89C52.1058 39.2983 51.9404 40.1259 52.3488 40.7387V40.7387Z" fill="#F45151"/>
<path d="M52.126 42.6675C51.3899 42.6675 50.793 43.2644 50.793 44.0011C50.793 44.7372 51.3899 45.3348 52.126 45.3348C54.7212 45.4849 57.2286 46.3284 59.3868 47.7774C59.7829 48.0466 60.2931 48.0826 60.7234 47.8714C61.1537 47.6602 61.4376 47.2348 61.4675 46.7563C61.4968 46.2778 61.2673 45.8206 60.8657 45.5588C58.2698 43.8174 55.2479 42.8176 52.126 42.6675V42.6675Z" fill="#F45151"/>
<path d="M24.1013 22.6647C24.1563 22.6653 24.2106 22.666 24.2655 22.666C27.2587 22.5732 30.0688 21.2005 31.9816 18.8958C32.4278 18.3153 32.3222 17.4834 31.7448 17.0324C31.168 16.5819 30.3349 16.6808 29.8795 17.2545C28.444 18.9397 26.3609 19.9364 24.1483 19.9981C23.4159 19.9963 22.8147 20.5761 22.7915 21.3079C22.7848 21.6619 22.9197 22.0031 23.165 22.2576C23.411 22.5121 23.7473 22.6586 24.1013 22.6647Z" fill="#F45151"/>
<path d="M55.9844 22.666C56.0393 22.666 56.0942 22.666 56.1485 22.6647C56.5025 22.6586 56.8388 22.5121 57.0848 22.2576C57.3302 22.0031 57.4651 21.6619 57.4584 21.3079C57.4278 20.5798 56.8309 20.0036 56.1015 19.9981C53.8909 19.9297 51.8102 18.9336 50.3704 17.2545C49.915 16.6808 49.0819 16.5819 48.5051 17.0324C47.9277 17.4834 47.8221 18.3153 48.2683 18.8958C50.1811 21.2005 52.9912 22.5732 55.9844 22.666Z" fill="#F45151"/>
<path d="M23.292 29.6258C22.9099 29.92 22.7159 30.3973 22.7854 30.8746C22.855 31.3519 23.1773 31.7547 23.6277 31.9274C24.0776 32.1002 24.5866 32.016 24.9571 31.7077C27.8105 29.4256 29.6776 29.1162 30.742 29.2559C31.3695 29.3164 31.9499 29.616 32.3625 30.0927C32.7824 30.6848 33.5991 30.8325 34.1997 30.4241C34.7997 30.0158 34.9632 29.2022 34.5671 28.5937C33.7608 27.5158 32.5542 26.8078 31.2199 26.6302C28.8987 26.2689 26.2272 27.2765 23.292 29.6258Z" fill="#F45151"/>
<path d="M47.9012 30.0728C48.2979 29.6248 48.8448 29.338 49.4386 29.2653C50.5171 29.1024 52.3946 29.3898 55.2919 31.7074C55.8681 32.1505 56.6927 32.051 57.1468 31.484C57.6003 30.9163 57.5166 30.0899 56.9576 29.6254C54.0224 27.2762 51.3521 26.2697 49.0297 26.6298C47.6949 26.8074 46.4882 27.5154 45.6819 28.5933C45.2821 29.2061 45.45 30.0264 46.0585 30.4323C46.6676 30.8382 47.4892 30.6777 47.9005 30.0728H47.9012Z" fill="#F45151"/>
</svg>
