<svg width="30" height="30" viewBox="0 0 30 30" fill="none" xmlns="http://www.w3.org/2000/svg">
<path d="M4.68872 21.44V22.184H2.32872V23.824H4.16872V24.568H2.32872V27H1.41672V21.44H4.68872ZM9.73391 24.688C9.73391 24.8533 9.72324 25.0027 9.70191 25.136H6.33391C6.36057 25.488 6.49124 25.7707 6.72591 25.984C6.96057 26.1973 7.24857 26.304 7.58991 26.304C8.08057 26.304 8.42724 26.0987 8.62991 25.688H9.61391C9.48057 26.0933 9.23791 26.4267 8.88591 26.688C8.53924 26.944 8.10724 27.072 7.58991 27.072C7.16857 27.072 6.78991 26.9787 6.45391 26.792C6.12324 26.6 5.86191 26.3333 5.66991 25.992C5.48324 25.6453 5.38991 25.2453 5.38991 24.792C5.38991 24.3387 5.48057 23.9413 5.66191 23.6C5.84857 23.2533 6.10724 22.9867 6.43791 22.8C6.77391 22.6133 7.15791 22.52 7.58991 22.52C8.00591 22.52 8.37657 22.6107 8.70191 22.792C9.02724 22.9733 9.28057 23.2293 9.46191 23.56C9.64324 23.8853 9.73391 24.2613 9.73391 24.688ZM8.78191 24.4C8.77657 24.064 8.65657 23.7947 8.42191 23.592C8.18724 23.3893 7.89657 23.288 7.54991 23.288C7.23524 23.288 6.96591 23.3893 6.74191 23.592C6.51791 23.7893 6.38457 24.0587 6.34191 24.4H8.78191ZM7.56591 21.592L6.42191 22.28V21.568L7.56591 20.904L8.70991 21.568V22.28L7.56591 21.592ZM16.1274 22.52C16.4741 22.52 16.7834 22.592 17.0554 22.736C17.3327 22.88 17.5487 23.0933 17.7034 23.376C17.8634 23.6587 17.9434 24 17.9434 24.4V27H17.0394V24.536C17.0394 24.1413 16.9407 23.84 16.7434 23.632C16.5461 23.4187 16.2767 23.312 15.9354 23.312C15.5941 23.312 15.3221 23.4187 15.1194 23.632C14.9221 23.84 14.8234 24.1413 14.8234 24.536V27H13.9194V24.536C13.9194 24.1413 13.8207 23.84 13.6234 23.632C13.4261 23.4187 13.1567 23.312 12.8154 23.312C12.4741 23.312 12.2021 23.4187 11.9994 23.632C11.8021 23.84 11.7034 24.1413 11.7034 24.536V27H10.7914V22.592H11.7034V23.096C11.8527 22.9147 12.0421 22.7733 12.2714 22.672C12.5007 22.5707 12.7461 22.52 13.0074 22.52C13.3594 22.52 13.6741 22.5947 13.9514 22.744C14.2287 22.8933 14.4421 23.1093 14.5914 23.392C14.7247 23.1253 14.9327 22.9147 15.2154 22.76C15.4981 22.6 15.8021 22.52 16.1274 22.52ZM23.3039 24.688C23.3039 24.8533 23.2932 25.0027 23.2719 25.136H19.9039C19.9306 25.488 20.0612 25.7707 20.2959 25.984C20.5306 26.1973 20.8186 26.304 21.1599 26.304C21.6506 26.304 21.9972 26.0987 22.1999 25.688H23.1839C23.0506 26.0933 22.8079 26.4267 22.4559 26.688C22.1092 26.944 21.6772 27.072 21.1599 27.072C20.7386 27.072 20.3599 26.9787 20.0239 26.792C19.6932 26.6 19.4319 26.3333 19.2399 25.992C19.0532 25.6453 18.9599 25.2453 18.9599 24.792C18.9599 24.3387 19.0506 23.9413 19.2319 23.6C19.4186 23.2533 19.6772 22.9867 20.0079 22.8C20.3439 22.6133 20.7279 22.52 21.1599 22.52C21.5759 22.52 21.9466 22.6107 22.2719 22.792C22.5972 22.9733 22.8506 23.2293 23.0319 23.56C23.2132 23.8853 23.3039 24.2613 23.3039 24.688ZM22.3519 24.4C22.3466 24.064 22.2266 23.7947 21.9919 23.592C21.7572 23.3893 21.4666 23.288 21.1199 23.288C20.8052 23.288 20.5359 23.3893 20.3119 23.592C20.0879 23.7893 19.9546 24.0587 19.9119 24.4H22.3519ZM24.0574 24.776C24.0574 24.3333 24.1481 23.9413 24.3294 23.6C24.5161 23.2587 24.7667 22.9947 25.0814 22.808C25.4014 22.616 25.7534 22.52 26.1374 22.52C26.4841 22.52 26.7854 22.5893 27.0414 22.728C27.3027 22.8613 27.5107 23.0293 27.6654 23.232V22.592H28.5854V27H27.6654V26.344C27.5107 26.552 27.3001 26.7253 27.0334 26.864C26.7667 27.0027 26.4627 27.072 26.1214 27.072C25.7427 27.072 25.3961 26.976 25.0814 26.784C24.7667 26.5867 24.5161 26.3147 24.3294 25.968C24.1481 25.616 24.0574 25.2187 24.0574 24.776ZM27.6654 24.792C27.6654 24.488 27.6014 24.224 27.4734 24C27.3507 23.776 27.1881 23.6053 26.9854 23.488C26.7827 23.3707 26.5641 23.312 26.3294 23.312C26.0947 23.312 25.8761 23.3707 25.6734 23.488C25.4707 23.6 25.3054 23.768 25.1774 23.992C25.0547 24.2107 24.9934 24.472 24.9934 24.776C24.9934 25.08 25.0547 25.3467 25.1774 25.576C25.3054 25.8053 25.4707 25.9813 25.6734 26.104C25.8814 26.2213 26.1001 26.28 26.3294 26.28C26.5641 26.28 26.7827 26.2213 26.9854 26.104C27.1881 25.9867 27.3507 25.816 27.4734 25.592C27.6014 25.3627 27.6654 25.096 27.6654 24.792Z" fill="#9B3A9B"/>
<path d="M20.4826 6.12639C20.4826 3.32191 18.1693 1 15.3293 1C12.4893 1 10.1378 3.32191 10.1378 6.12639C10.1378 8.73858 12.1915 10.8758 14.7567 11.1585V14.6075H13.0389C12.7183 14.6075 12.4664 14.8563 12.4664 15.1729C12.4664 15.4895 12.7183 15.7384 13.0389 15.7384H14.7567V17.4346C14.7567 17.7512 15.0086 18 15.3293 18C15.65 18 15.9019 17.7512 15.9019 17.4346V15.7384H17.6197C17.9404 15.7384 18.1923 15.4895 18.1923 15.1729C18.1923 14.8563 17.9404 14.6075 17.6197 14.6075H15.9019V11.1585C18.4671 10.8758 20.4826 8.73858 20.4826 6.12639ZM15.3293 10.0843C13.1191 10.0843 11.283 8.30887 11.283 6.12639C11.283 3.9439 13.1191 2.13082 15.3293 2.13082C17.5395 2.13082 19.3375 3.9439 19.3375 6.12639C19.3375 8.30887 17.5395 10.0843 15.3293 10.0843Z" fill="#008080"/>
</svg>
