<svg width="24" height="25" viewBox="0 0 24 25" fill="none" xmlns="http://www.w3.org/2000/svg">
<path d="M23.1904 6.51315L20.7397 5.52442C20.5901 4.73332 19.9889 4.09993 19.2153 3.90335L19.0827 2.37613C19.0638 2.15828 18.9176 1.97233 18.7104 1.90255C18.5031 1.83276 18.2742 1.89228 18.1274 2.05434L17.4862 2.76148L17.0929 1.38466C17.0274 1.15538 16.8215 0.99442 16.5832 0.986109C16.345 0.978715 16.1283 1.12409 16.047 1.34836L12.6533 10.7107C10.212 11.3447 8.0803 12.9068 6.77093 15.0325C5.57163 16.9796 5.19911 19.2102 5.72201 21.3136C6.02761 22.5429 6.60784 23.3529 7.20138 23.8841H6.73457C6.73017 23.8841 6.72577 23.8842 6.72137 23.8843C4.51323 23.9381 2.46691 22.6827 1.51136 20.6879C1.38016 20.414 1.05171 20.2983 0.777761 20.4295C0.503814 20.5607 0.388136 20.8891 0.519396 21.1631C1.63828 23.499 4.00732 24.9858 6.58657 24.9858C6.63802 24.9858 17.0867 24.9858 17.0867 24.9858C17.3905 24.9858 17.6367 24.7396 17.6367 24.4358C17.6367 22.9554 16.4559 22.2807 15.4137 22.033C15.901 21.083 15.9431 20.2476 15.8879 19.701L16.0316 19.6818L19.328 24.7362C19.4295 24.8919 19.6028 24.9858 19.7887 24.9858H21.7903C21.9905 24.9858 22.175 24.8769 22.2717 24.7015C22.3685 24.5262 22.3623 24.3121 22.2555 24.1426C22.2343 24.1089 20.1677 20.8277 19.0568 18.9907V9.74962C19.2203 9.76844 19.4039 9.77791 19.5661 9.77791C21.1616 9.77791 22.6621 8.87779 23.47 7.28177C23.4707 7.28049 23.4914 7.23722 23.4947 7.22891C23.6083 6.94726 23.4721 6.62675 23.1904 6.51315Z" fill="white"/>
</svg>
