<svg width="16" height="25" viewBox="0 0 16 25" fill="none" xmlns="http://www.w3.org/2000/svg">
<path d="M15.9838 23.8616C15.8676 22.8947 14.7991 22.785 14.1778 22.8516C13.5164 20.3611 15.8235 16.6491 15.9592 15.7698C16.1051 14.8253 15.2839 9.32914 15.1972 6.54615C15.1081 3.68921 10.9587 0.535292 10.266 1.03807C9.57949 1.79716 11.2547 2.82169 10.3729 3.70006C9.52107 4.54871 9.29894 5.11905 8.66643 6.07957C7.04601 8.53972 11.4373 8.57046 11.4373 8.57046C11.4373 8.57046 8.00065 11.1175 7.23599 12.4012C6.53177 13.5835 6.23651 14.9061 5.38674 16.021C3.45007 18.5619 3.88651 22.9921 3.88651 22.9921C3.88651 22.9921 0.217845 21.7913 2.23688 17.6029C3.77383 14.4147 4.53089 9.7098 1.07309 10.9198C-0.26465 11.388 1.3722 12.3728 1.65468 12.6882C2.59979 13.7431 1.80084 15.5177 1.23132 16.5437C-0.293861 19.2915 -0.847559 22.1705 2.36265 23.9458C3.78904 24.7345 5.71537 24.9296 7.65417 24.9583L12.5877 24.9725C14.2129 25.0533 16.0513 24.7494 15.9838 23.8616Z" fill="white"/>
</svg>
