<svg width="24" height="25" viewBox="0 0 24 25" fill="none" xmlns="http://www.w3.org/2000/svg">
<path d="M23.1904 6.51291L20.7397 5.52418C20.5901 4.73307 19.9889 4.09969 19.2153 3.9031L19.0827 2.37589C19.0638 2.15804 18.9176 1.97209 18.7104 1.9023C18.5031 1.83252 18.2742 1.89204 18.1274 2.0541L17.4862 2.76124L17.0929 1.38441C17.0274 1.15513 16.8215 0.994176 16.5832 0.985865C16.345 0.978471 16.1283 1.12385 16.047 1.34811L12.6533 10.7105C10.212 11.3444 8.0803 12.9066 6.77093 15.0323C5.57163 16.9793 5.19911 19.21 5.72201 21.3133C6.02761 22.5427 6.60784 23.3527 7.20138 23.8839H6.73457C6.73017 23.8839 6.72577 23.8839 6.72137 23.884C4.51323 23.9379 2.46691 22.6825 1.51136 20.6877C1.38016 20.4137 1.05171 20.2981 0.777761 20.4292C0.503814 20.5605 0.388136 20.8889 0.519396 21.1628C1.63828 23.4988 4.00732 24.9856 6.58657 24.9856C6.63802 24.9856 17.0867 24.9856 17.0867 24.9856C17.3905 24.9856 17.6367 24.7394 17.6367 24.4356C17.6367 22.9552 16.4559 22.2804 15.4137 22.0328C15.901 21.0828 15.9431 20.2473 15.8879 19.7008L16.0316 19.6816L19.328 24.736C19.4295 24.8916 19.6028 24.9855 19.7887 24.9855H21.7903C21.9905 24.9855 22.175 24.8766 22.2717 24.7013C22.3685 24.526 22.3623 24.3119 22.2555 24.1424C22.2343 24.1087 20.1677 20.8275 19.0568 18.9904V9.74937C19.2203 9.7682 19.4039 9.77767 19.5661 9.77767C21.1616 9.77767 22.6621 8.87754 23.47 7.28152C23.4707 7.28024 23.4914 7.23698 23.4947 7.22867C23.6083 6.94702 23.4721 6.62651 23.1904 6.51291Z" fill="#008080"/>
</svg>
