<svg width="16" height="25" viewBox="0 0 16 25" fill="none" xmlns="http://www.w3.org/2000/svg">
<path d="M15.9838 23.8619C15.8676 22.8949 14.7991 22.7853 14.1778 22.8518C13.5164 20.3614 15.8235 16.6494 15.9592 15.7701C16.1051 14.8256 15.2839 9.32938 15.1972 6.54639C15.1081 3.68945 10.9587 0.535536 10.266 1.03832C9.57949 1.79741 11.2547 2.82194 10.3729 3.70031C9.52107 4.54896 9.29894 5.11929 8.66643 6.07982C7.04601 8.53997 11.4373 8.5707 11.4373 8.5707C11.4373 8.5707 8.00065 11.1178 7.23599 12.4014C6.53177 13.5837 6.23651 14.9063 5.38674 16.0212C3.45007 18.5621 3.88651 22.9923 3.88651 22.9923C3.88651 22.9923 0.217845 21.7915 2.23688 17.6031C3.77383 14.4149 4.53089 9.71004 1.07309 10.9201C-0.26465 11.3883 1.3722 12.373 1.65468 12.6885C2.59979 13.7433 1.80084 15.5179 1.23132 16.544C-0.293861 19.2918 -0.847559 22.1707 2.36265 23.946C3.78904 24.7347 5.71537 24.9299 7.65417 24.9585L12.5877 24.9727C14.2129 25.0535 16.0513 24.7497 15.9838 23.8619Z" fill="#008080"/>
</svg>
