<svg width="142" height="16" viewBox="0 0 142 16" fill="none" xmlns="http://www.w3.org/2000/svg">
<path d="M6.17735 6.61515C6.40838 6.83836 5.92366 6.56368 6.24132 6.56368C6.55898 6.56368 6.05411 6.74829 6.2707 6.52508C6.50172 6.28698 6.30841 6.7577 6.30841 6.43032C6.30841 6.10294 6.50172 6.65353 6.2707 6.43032C6.05411 6.19222 6.62607 6.43032 6.30841 6.43032C5.99075 6.43032 6.47234 6.32559 6.24132 6.56368C6.24132 6.2363 6.02474 6.7869 6.24132 6.56368C6.24132 6.89107 5.96077 6.37705 6.17735 6.61515ZM4.17655 4.21994C4.81186 3.56517 5.57713 3.23779 6.47234 3.23779C7.36756 3.23779 8.1256 3.56517 8.74648 4.21994C9.38179 4.85982 9.69945 5.64107 9.69945 6.56368C9.69945 7.02499 9.58394 7.55327 9.35291 8.14851C9.13633 8.74374 8.86921 9.30178 8.55155 9.82261C8.23389 10.3434 7.91624 10.8345 7.59858 11.2958C7.29536 11.7423 7.03546 12.0994 6.81888 12.3673L6.47234 12.7467C6.38571 12.6426 6.2702 12.5086 6.12581 12.3449C5.98142 12.1664 5.72152 11.8241 5.34611 11.3181C4.97069 10.7973 4.6386 10.2988 4.34982 9.82261C4.07548 9.33154 3.8228 8.78095 3.59177 8.17083C3.36075 7.56071 3.24524 7.02499 3.24524 6.56368C3.24524 5.64107 3.55568 4.85982 4.17655 4.21994Z" fill="#333333"/>
<g clip-path="url(#clip0)">
<path d="M7.35064 6.35538C7.10194 6.04592 6.78759 5.87549 6.46547 5.87549C6.14336 5.87549 5.829 6.04592 5.58032 6.35538C5.35678 6.63355 5.22333 6.98411 5.22333 7.29314C5.22333 7.44326 5.26786 7.55761 5.35567 7.63302C5.44235 7.70745 5.55679 7.73263 5.68446 7.73262C5.82031 7.73262 5.97115 7.70411 6.11936 7.67609C6.24887 7.6516 6.37119 7.62848 6.46548 7.62848C6.54686 7.62848 6.6616 7.65043 6.78305 7.67366C7.0669 7.72798 7.38863 7.78953 7.57448 7.63027C7.66283 7.55457 7.70763 7.44114 7.70763 7.29314C7.70763 6.98411 7.57418 6.63355 7.35064 6.35538Z" fill="white"/>
<path d="M7.37603 4.67508C7.28504 4.53681 7.15474 4.45752 7.01855 4.45752C6.88234 4.45752 6.75205 4.53682 6.66106 4.67508C6.57747 4.8021 6.53143 4.9689 6.53143 5.14476C6.53143 5.32062 6.57746 5.48742 6.66106 5.61444C6.75205 5.7527 6.88235 5.832 7.01855 5.832C7.15475 5.832 7.28504 5.7527 7.37603 5.61444C7.45962 5.48742 7.50566 5.32062 7.50566 5.14476C7.50566 4.9689 7.45963 4.80209 7.37603 4.67508Z" fill="white"/>
<path d="M6.26995 4.67508C6.17896 4.53681 6.04867 4.45752 5.91247 4.45752C5.77626 4.45752 5.64597 4.53682 5.55498 4.67508C5.47139 4.8021 5.42535 4.9689 5.42535 5.14476C5.42535 5.32062 5.47139 5.48742 5.55498 5.61444C5.64597 5.75271 5.77626 5.83201 5.91247 5.83201C6.04867 5.83201 6.17896 5.75271 6.26995 5.61444C6.35354 5.48742 6.39958 5.32063 6.39958 5.14476C6.39957 4.9689 6.35354 4.80209 6.26995 4.67508Z" fill="white"/>
<path d="M8.29234 5.75411C8.25566 5.62551 8.17703 5.53206 8.07095 5.491C7.98559 5.45795 7.88923 5.46356 7.79962 5.50678C7.67613 5.56633 7.5752 5.68931 7.52271 5.84417C7.47982 5.97071 7.47447 6.10447 7.50766 6.22082C7.54434 6.34942 7.62297 6.44287 7.72905 6.48393C7.76576 6.49814 7.8045 6.5052 7.84386 6.5052C7.89603 6.5052 7.94931 6.49278 8.00039 6.46815C8.12388 6.40859 8.22481 6.28562 8.2773 6.13077V6.13076C8.32018 6.00422 8.32553 5.87045 8.29234 5.75411Z" fill="white"/>
<path d="M5.40853 5.84416C5.35603 5.6893 5.2551 5.56633 5.13162 5.50678C5.042 5.46355 4.94563 5.45796 4.86028 5.49099C4.7542 5.53207 4.67557 5.62551 4.63889 5.7541C4.6057 5.87045 4.61105 6.00422 4.65394 6.13076V6.13076C4.70644 6.28562 4.80737 6.40859 4.93085 6.46814C4.98193 6.49278 5.03521 6.5052 5.08738 6.5052C5.12674 6.5052 5.16548 6.49813 5.20219 6.48393C5.30828 6.44285 5.3869 6.34941 5.42359 6.22082C5.45676 6.10448 5.45141 5.97071 5.40853 5.84416Z" fill="white"/>
</g>
<path d="M11.1267 13.248C11.3027 13.536 11.6187 13.68 12.0747 13.68C12.2587 13.68 12.4387 13.596 12.6147 13.428C12.7987 13.268 12.8907 12.992 12.8907 12.6V3.6H13.8507V12.72C13.8507 13.376 13.6867 13.86 13.3587 14.172C13.0307 14.484 12.5827 14.64 12.0147 14.64C11.6947 14.64 11.4027 14.568 11.1387 14.424C10.8667 14.288 10.6867 14.16 10.5987 14.04L11.1267 13.248ZM16.2415 7.752L15.7735 7.044C15.9815 6.892 16.2655 6.74 16.6255 6.588C16.9935 6.436 17.4335 6.36 17.9455 6.36C18.5855 6.36 19.1055 6.508 19.5055 6.804C19.9055 7.092 20.1055 7.504 20.1055 8.04V12H19.1455V11.256C18.9695 11.544 18.7055 11.76 18.3535 11.904C18.0015 12.048 17.6575 12.12 17.3215 12.12C16.9855 12.12 16.6695 12.052 16.3735 11.916C16.0855 11.772 15.8535 11.568 15.6775 11.304C15.5015 11.04 15.4135 10.72 15.4135 10.344C15.4135 9.808 15.6015 9.38 15.9775 9.06C16.3615 8.732 16.8935 8.568 17.5735 8.568C17.9415 8.568 18.2535 8.612 18.5095 8.7C18.7735 8.78 18.9855 8.872 19.1455 8.976V8.172C19.1455 7.796 19.0215 7.54 18.7735 7.404C18.5335 7.268 18.2415 7.2 17.8975 7.2C17.4815 7.2 17.1335 7.268 16.8535 7.404C16.5735 7.54 16.3695 7.656 16.2415 7.752ZM16.3855 10.296C16.3855 10.616 16.4935 10.864 16.7095 11.04C16.9335 11.208 17.2215 11.292 17.5735 11.292C18.0135 11.292 18.3855 11.16 18.6895 10.896C18.9935 10.632 19.1455 10.28 19.1455 9.84V9.636C18.9215 9.524 18.6935 9.444 18.4615 9.396C18.2295 9.348 17.9855 9.324 17.7295 9.324C17.2655 9.324 16.9255 9.412 16.7095 9.588C16.4935 9.756 16.3855 9.992 16.3855 10.296ZM27.4908 9.24C27.4908 9.832 27.3668 10.344 27.1188 10.776C26.8708 11.208 26.5388 11.54 26.1228 11.772C25.7148 12.004 25.2588 12.12 24.7548 12.12C24.3468 12.12 23.9788 12.028 23.6508 11.844C23.3308 11.66 23.0708 11.396 22.8708 11.052V12H21.9108V2.64H22.8708V7.428C23.0708 7.084 23.3308 6.82 23.6508 6.636C23.9788 6.452 24.3468 6.36 24.7548 6.36C25.2588 6.36 25.7148 6.476 26.1228 6.708C26.5388 6.94 26.8708 7.272 27.1188 7.704C27.3668 8.128 27.4908 8.64 27.4908 9.24ZM26.5188 9.24C26.5188 8.816 26.4308 8.456 26.2548 8.16C26.0868 7.864 25.8588 7.64 25.5708 7.488C25.2908 7.336 24.9788 7.26 24.6348 7.26C24.3548 7.26 24.0788 7.336 23.8068 7.488C23.5348 7.64 23.3108 7.864 23.1348 8.16C22.9588 8.456 22.8708 8.816 22.8708 9.24C22.8708 9.664 22.9588 10.024 23.1348 10.32C23.3108 10.616 23.5348 10.84 23.8068 10.992C24.0788 11.144 24.3548 11.22 24.6348 11.22C24.9788 11.22 25.2908 11.144 25.5708 10.992C25.8588 10.84 26.0868 10.616 26.2548 10.32C26.4308 10.024 26.5188 9.664 26.5188 9.24ZM28.5746 9.24C28.5746 8.68 28.6986 8.184 28.9466 7.752C29.2026 7.32 29.5466 6.98 29.9786 6.732C30.4106 6.484 30.8946 6.36 31.4306 6.36C31.9746 6.36 32.4586 6.484 32.8826 6.732C33.3146 6.98 33.6546 7.32 33.9026 7.752C34.1586 8.184 34.2866 8.68 34.2866 9.24C34.2866 9.792 34.1586 10.288 33.9026 10.728C33.6546 11.16 33.3146 11.5 32.8826 11.748C32.4586 11.996 31.9746 12.12 31.4306 12.12C30.8946 12.12 30.4106 11.996 29.9786 11.748C29.5466 11.5 29.2026 11.16 28.9466 10.728C28.6986 10.288 28.5746 9.792 28.5746 9.24ZM29.5466 9.24C29.5466 9.624 29.6266 9.964 29.7866 10.26C29.9546 10.556 30.1786 10.792 30.4586 10.968C30.7466 11.136 31.0706 11.22 31.4306 11.22C31.7906 11.22 32.1106 11.136 32.3906 10.968C32.6786 10.792 32.9026 10.556 33.0626 10.26C33.2306 9.964 33.3146 9.624 33.3146 9.24C33.3146 8.856 33.2306 8.516 33.0626 8.22C32.9026 7.916 32.6786 7.68 32.3906 7.512C32.1106 7.344 31.7906 7.26 31.4306 7.26C31.0706 7.26 30.7466 7.344 30.4586 7.512C30.1786 7.68 29.9546 7.916 29.7866 8.22C29.6266 8.516 29.5466 8.856 29.5466 9.24ZM36.1334 7.752L35.6654 7.044C35.8734 6.892 36.1574 6.74 36.5174 6.588C36.8854 6.436 37.3254 6.36 37.8374 6.36C38.4774 6.36 38.9974 6.508 39.3974 6.804C39.7974 7.092 39.9974 7.504 39.9974 8.04V12H39.0374V11.256C38.8614 11.544 38.5974 11.76 38.2454 11.904C37.8934 12.048 37.5494 12.12 37.2134 12.12C36.8774 12.12 36.5614 12.052 36.2654 11.916C35.9774 11.772 35.7454 11.568 35.5694 11.304C35.3934 11.04 35.3054 10.72 35.3054 10.344C35.3054 9.808 35.4934 9.38 35.8694 9.06C36.2534 8.732 36.7854 8.568 37.4654 8.568C37.8334 8.568 38.1454 8.612 38.4014 8.7C38.6654 8.78 38.8774 8.872 39.0374 8.976V8.172C39.0374 7.796 38.9134 7.54 38.6654 7.404C38.4254 7.268 38.1334 7.2 37.7894 7.2C37.3734 7.2 37.0254 7.268 36.7454 7.404C36.4654 7.54 36.2614 7.656 36.1334 7.752ZM36.2774 10.296C36.2774 10.616 36.3854 10.864 36.6014 11.04C36.8254 11.208 37.1134 11.292 37.4654 11.292C37.9054 11.292 38.2774 11.16 38.5814 10.896C38.8854 10.632 39.0374 10.28 39.0374 9.84V9.636C38.8134 9.524 38.5854 9.444 38.3534 9.396C38.1214 9.348 37.8774 9.324 37.6214 9.324C37.1574 9.324 36.8174 9.412 36.6014 9.588C36.3854 9.756 36.2774 9.992 36.2774 10.296ZM41.0227 6.48H41.9227V4.56H42.8827V6.48H43.7827V7.38H42.8827V12H41.9227V7.38H41.0227V6.48ZM45.0815 5.196C45.1455 4.9 45.3015 4.664 45.5495 4.488C45.7975 4.304 46.0575 4.212 46.3295 4.212C46.5215 4.212 46.6775 4.24 46.7975 4.296C46.9255 4.352 47.0335 4.42 47.1215 4.5C47.2175 4.572 47.3175 4.636 47.4215 4.692C47.5255 4.748 47.6575 4.776 47.8175 4.776C48.0255 4.776 48.2495 4.584 48.4895 4.2L49.0415 4.716C48.9455 4.94 48.7855 5.144 48.5615 5.328C48.3375 5.504 48.0735 5.592 47.7695 5.592C47.5535 5.592 47.3695 5.544 47.2175 5.448C47.0655 5.352 46.9215 5.26 46.7855 5.172C46.6575 5.076 46.5015 5.028 46.3175 5.028C46.1575 5.028 46.0335 5.068 45.9455 5.148C45.8575 5.22 45.7975 5.304 45.7655 5.4C45.7335 5.496 45.7175 5.576 45.7175 5.64L45.0815 5.196ZM45.4175 7.776L44.9495 7.044C45.1575 6.892 45.4375 6.74 45.7895 6.588C46.1415 6.436 46.5655 6.36 47.0615 6.36C47.6935 6.36 48.2055 6.508 48.5975 6.804C48.9895 7.092 49.1855 7.504 49.1855 8.04V12H48.2255V11.208C48.0575 11.504 47.8055 11.732 47.4695 11.892C47.1335 12.044 46.7575 12.12 46.3415 12.12C45.7735 12.12 45.3135 11.976 44.9615 11.688C44.6175 11.4 44.4455 11.004 44.4455 10.5C44.4455 10.068 44.5495 9.712 44.7575 9.432C44.9655 9.144 45.2455 8.928 45.5975 8.784C45.9575 8.64 46.3575 8.568 46.7975 8.568C47.1175 8.568 47.3975 8.608 47.6375 8.688C47.8775 8.768 48.0735 8.86 48.2255 8.964V8.04C48.2255 7.76 48.1055 7.552 47.8655 7.416C47.6335 7.272 47.3655 7.2 47.0615 7.2C46.6695 7.2 46.3295 7.272 46.0415 7.416C45.7615 7.56 45.5535 7.68 45.4175 7.776ZM45.4175 10.38C45.4175 10.972 45.8055 11.268 46.5815 11.268C47.0615 11.268 47.4535 11.16 47.7575 10.944C48.0695 10.72 48.2255 10.352 48.2255 9.84V9.624C47.8175 9.408 47.3575 9.3 46.8455 9.3C46.3575 9.3 45.9975 9.396 45.7655 9.588C45.5335 9.78 45.4175 10.044 45.4175 10.38ZM50.5697 9.24C50.5697 8.68 50.6937 8.184 50.9417 7.752C51.1977 7.32 51.5417 6.98 51.9737 6.732C52.4057 6.484 52.8897 6.36 53.4257 6.36C53.9697 6.36 54.4537 6.484 54.8777 6.732C55.3097 6.98 55.6497 7.32 55.8977 7.752C56.1537 8.184 56.2817 8.68 56.2817 9.24C56.2817 9.792 56.1537 10.288 55.8977 10.728C55.6497 11.16 55.3097 11.5 54.8777 11.748C54.4537 11.996 53.9697 12.12 53.4257 12.12C52.8897 12.12 52.4057 11.996 51.9737 11.748C51.5417 11.5 51.1977 11.16 50.9417 10.728C50.6937 10.288 50.5697 9.792 50.5697 9.24ZM51.5417 9.24C51.5417 9.624 51.6217 9.964 51.7817 10.26C51.9497 10.556 52.1737 10.792 52.4537 10.968C52.7417 11.136 53.0657 11.22 53.4257 11.22C53.7857 11.22 54.1057 11.136 54.3857 10.968C54.6737 10.792 54.8977 10.556 55.0577 10.26C55.2257 9.964 55.3097 9.624 55.3097 9.24C55.3097 8.856 55.2257 8.516 55.0577 8.22C54.8977 7.916 54.6737 7.68 54.3857 7.512C54.1057 7.344 53.7857 7.26 53.4257 7.26C53.0657 7.26 52.7417 7.344 52.4537 7.512C52.1737 7.68 51.9497 7.916 51.7817 8.22C51.6217 8.516 51.5417 8.856 51.5417 9.24ZM61.1982 9.24C61.1982 8.64 61.3222 8.128 61.5702 7.704C61.8182 7.272 62.1502 6.94 62.5662 6.708C62.9822 6.476 63.4382 6.36 63.9342 6.36C64.3422 6.36 64.7062 6.452 65.0262 6.636C65.3542 6.82 65.6182 7.084 65.8182 7.428V2.64H66.7782V12H65.8182V11.052C65.6182 11.396 65.3542 11.66 65.0262 11.844C64.7062 12.028 64.3422 12.12 63.9342 12.12C63.4382 12.12 62.9822 12.004 62.5662 11.772C62.1502 11.54 61.8182 11.208 61.5702 10.776C61.3222 10.344 61.1982 9.832 61.1982 9.24ZM62.1702 9.24C62.1702 9.664 62.2542 10.024 62.4222 10.32C62.5982 10.616 62.8302 10.84 63.1182 10.992C63.4062 11.144 63.7182 11.22 64.0542 11.22C64.3342 11.22 64.6102 11.144 64.8822 10.992C65.1542 10.84 65.3782 10.616 65.5542 10.32C65.7302 10.024 65.8182 9.664 65.8182 9.24C65.8182 8.816 65.7302 8.456 65.5542 8.16C65.3782 7.864 65.1542 7.64 64.8822 7.488C64.6102 7.336 64.3342 7.26 64.0542 7.26C63.7182 7.26 63.4062 7.336 63.1182 7.488C62.8302 7.64 62.5982 7.864 62.4222 8.16C62.2542 8.456 62.1702 8.816 62.1702 9.24ZM68.2819 9.24C68.2819 8.68 68.4059 8.184 68.6539 7.752C68.9099 7.32 69.2539 6.98 69.6859 6.732C70.1179 6.484 70.6019 6.36 71.1379 6.36C71.6819 6.36 72.1659 6.484 72.5899 6.732C73.0219 6.98 73.3619 7.32 73.6099 7.752C73.8659 8.184 73.9939 8.68 73.9939 9.24C73.9939 9.792 73.8659 10.288 73.6099 10.728C73.3619 11.16 73.0219 11.5 72.5899 11.748C72.1659 11.996 71.6819 12.12 71.1379 12.12C70.6019 12.12 70.1179 11.996 69.6859 11.748C69.2539 11.5 68.9099 11.16 68.6539 10.728C68.4059 10.288 68.2819 9.792 68.2819 9.24ZM69.2539 9.24C69.2539 9.624 69.3339 9.964 69.4939 10.26C69.6619 10.556 69.8859 10.792 70.1659 10.968C70.4539 11.136 70.7779 11.22 71.1379 11.22C71.4979 11.22 71.8179 11.136 72.0979 10.968C72.3859 10.792 72.6099 10.556 72.7699 10.26C72.9379 9.964 73.0219 9.624 73.0219 9.24C73.0219 8.856 72.9379 8.516 72.7699 8.22C72.6099 7.916 72.3859 7.68 72.0979 7.512C71.8179 7.344 71.4979 7.26 71.1379 7.26C70.7779 7.26 70.4539 7.344 70.1659 7.512C69.8859 7.68 69.6619 7.916 69.4939 8.22C69.3339 8.516 69.2539 8.856 69.2539 9.24ZM75.7807 10.308C75.9487 10.564 76.1527 10.784 76.3927 10.968C76.6407 11.152 76.9367 11.244 77.2807 11.244C77.5527 11.244 77.7647 11.184 77.9167 11.064C78.0767 10.936 78.1567 10.764 78.1567 10.548C78.1567 10.356 78.0927 10.196 77.9647 10.068C77.8447 9.932 77.6887 9.82 77.4967 9.732C77.3047 9.636 77.1007 9.548 76.8847 9.468C76.6447 9.372 76.4007 9.26 76.1527 9.132C75.9127 8.996 75.7087 8.824 75.5407 8.616C75.3807 8.4 75.3007 8.132 75.3007 7.812C75.3007 7.484 75.3847 7.212 75.5527 6.996C75.7287 6.78 75.9527 6.62 76.2247 6.516C76.5047 6.412 76.7927 6.36 77.0887 6.36C77.5287 6.36 77.9287 6.464 78.2887 6.672C78.6487 6.88 78.9127 7.136 79.0807 7.44L78.3127 7.932C78.1607 7.724 77.9687 7.552 77.7367 7.416C77.5127 7.28 77.2567 7.212 76.9687 7.212C76.7687 7.212 76.5967 7.256 76.4527 7.344C76.3087 7.432 76.2367 7.568 76.2367 7.752C76.2367 7.976 76.3527 8.16 76.5847 8.304C76.8247 8.44 77.0927 8.568 77.3887 8.688C77.7087 8.816 78.0007 8.956 78.2647 9.108C78.5287 9.252 78.7367 9.428 78.8887 9.636C79.0487 9.844 79.1287 10.112 79.1287 10.44C79.1287 10.92 78.9527 11.32 78.6007 11.64C78.2567 11.96 77.8007 12.12 77.2327 12.12C76.8647 12.12 76.5327 12.056 76.2367 11.928C75.9407 11.792 75.6887 11.62 75.4807 11.412C75.2807 11.204 75.1287 10.992 75.0247 10.776L75.7807 10.308ZM88.4302 8.7V7.74H92.3302C92.3302 8.324 92.2422 8.88 92.0662 9.408C91.8902 9.928 91.6302 10.392 91.2862 10.8C90.9422 11.208 90.5182 11.532 90.0142 11.772C89.5182 12.004 88.9502 12.12 88.3102 12.12C87.7022 12.12 87.1382 12.016 86.6182 11.808C86.0982 11.592 85.6462 11.292 85.2622 10.908C84.8782 10.516 84.5782 10.056 84.3622 9.528C84.1542 9 84.0502 8.424 84.0502 7.8C84.0502 7.176 84.1542 6.6 84.3622 6.072C84.5782 5.544 84.8782 5.088 85.2622 4.704C85.6462 4.312 86.0982 4.012 86.6182 3.804C87.1382 3.588 87.7022 3.48 88.3102 3.48C89.0862 3.48 89.7702 3.632 90.3622 3.936C90.9622 4.24 91.4422 4.684 91.8022 5.268L91.0822 5.928C90.8182 5.48 90.4502 5.132 89.9782 4.884C89.5062 4.628 88.9502 4.5 88.3102 4.5C87.7182 4.5 87.1822 4.64 86.7022 4.92C86.2222 5.2 85.8382 5.588 85.5502 6.084C85.2702 6.572 85.1302 7.144 85.1302 7.8C85.1302 8.448 85.2702 9.02 85.5502 9.516C85.8382 10.012 86.2222 10.4 86.7022 10.68C87.1822 10.96 87.7182 11.1 88.3102 11.1C88.8702 11.1 89.3502 10.992 89.7502 10.776C90.1502 10.552 90.4742 10.26 90.7222 9.9C90.9702 9.532 91.1382 9.132 91.2262 8.7H88.4302ZM94.9749 9.84C94.9749 10.28 95.0749 10.62 95.2749 10.86C95.4749 11.1 95.7669 11.22 96.1509 11.22C96.5749 11.22 96.9149 11.092 97.1709 10.836C97.4269 10.58 97.5549 10.248 97.5549 9.84V6.48H98.5149V12H97.5549V11.136C97.1869 11.792 96.6389 12.12 95.9109 12.12C95.3349 12.12 94.8749 11.924 94.5309 11.532C94.1869 11.14 94.0149 10.616 94.0149 9.96V6.48H94.9749V9.84ZM100.848 7.752L100.38 7.044C100.588 6.892 100.872 6.74 101.232 6.588C101.6 6.436 102.04 6.36 102.552 6.36C103.192 6.36 103.712 6.508 104.112 6.804C104.512 7.092 104.712 7.504 104.712 8.04V12H103.752V11.256C103.576 11.544 103.312 11.76 102.96 11.904C102.608 12.048 102.264 12.12 101.928 12.12C101.592 12.12 101.276 12.052 100.98 11.916C100.692 11.772 100.46 11.568 100.284 11.304C100.108 11.04 100.02 10.72 100.02 10.344C100.02 9.808 100.208 9.38 100.584 9.06C100.968 8.732 101.5 8.568 102.18 8.568C102.548 8.568 102.86 8.612 103.116 8.7C103.38 8.78 103.592 8.872 103.752 8.976V8.172C103.752 7.796 103.628 7.54 103.38 7.404C103.14 7.268 102.848 7.2 102.504 7.2C102.088 7.2 101.74 7.268 101.46 7.404C101.18 7.54 100.976 7.656 100.848 7.752ZM100.992 10.296C100.992 10.616 101.1 10.864 101.316 11.04C101.54 11.208 101.828 11.292 102.18 11.292C102.62 11.292 102.992 11.16 103.296 10.896C103.6 10.632 103.752 10.28 103.752 9.84V9.636C103.528 9.524 103.3 9.444 103.068 9.396C102.836 9.348 102.592 9.324 102.336 9.324C101.872 9.324 101.532 9.412 101.316 9.588C101.1 9.756 100.992 9.992 100.992 10.296ZM109.205 7.536C109.077 7.44 108.961 7.372 108.857 7.332C108.753 7.284 108.621 7.26 108.461 7.26C108.101 7.26 107.857 7.392 107.729 7.656C107.601 7.912 107.537 8.24 107.537 8.64V12H106.577V6.48H107.537V7.116C107.689 6.884 107.869 6.7 108.077 6.564C108.285 6.428 108.493 6.36 108.701 6.36C108.901 6.36 109.085 6.388 109.253 6.444C109.429 6.492 109.589 6.592 109.733 6.744L109.205 7.536ZM111.218 7.752L110.75 7.044C110.958 6.892 111.242 6.74 111.602 6.588C111.97 6.436 112.41 6.36 112.922 6.36C113.562 6.36 114.082 6.508 114.482 6.804C114.882 7.092 115.082 7.504 115.082 8.04V12H114.122V11.256C113.946 11.544 113.682 11.76 113.33 11.904C112.978 12.048 112.634 12.12 112.298 12.12C111.962 12.12 111.646 12.052 111.35 11.916C111.062 11.772 110.83 11.568 110.654 11.304C110.478 11.04 110.39 10.72 110.39 10.344C110.39 9.808 110.578 9.38 110.954 9.06C111.338 8.732 111.87 8.568 112.55 8.568C112.918 8.568 113.23 8.612 113.486 8.7C113.75 8.78 113.962 8.872 114.122 8.976V8.172C114.122 7.796 113.998 7.54 113.75 7.404C113.51 7.268 113.218 7.2 112.874 7.2C112.458 7.2 112.11 7.268 111.83 7.404C111.55 7.54 111.346 7.656 111.218 7.752ZM111.362 10.296C111.362 10.616 111.47 10.864 111.686 11.04C111.91 11.208 112.198 11.292 112.55 11.292C112.99 11.292 113.362 11.16 113.666 10.896C113.97 10.632 114.122 10.28 114.122 9.84V9.636C113.898 9.524 113.67 9.444 113.438 9.396C113.206 9.348 112.962 9.324 112.706 9.324C112.242 9.324 111.902 9.412 111.686 9.588C111.47 9.756 111.362 9.992 111.362 10.296ZM119.576 7.536C119.448 7.44 119.332 7.372 119.228 7.332C119.124 7.284 118.992 7.26 118.832 7.26C118.472 7.26 118.228 7.392 118.1 7.656C117.972 7.912 117.908 8.24 117.908 8.64V12H116.948V6.48H117.908V7.116C118.06 6.884 118.24 6.7 118.448 6.564C118.656 6.428 118.864 6.36 119.072 6.36C119.272 6.36 119.456 6.388 119.624 6.444C119.8 6.492 119.96 6.592 120.104 6.744L119.576 7.536ZM121.589 7.752L121.121 7.044C121.329 6.892 121.613 6.74 121.973 6.588C122.341 6.436 122.781 6.36 123.293 6.36C123.933 6.36 124.453 6.508 124.853 6.804C125.253 7.092 125.453 7.504 125.453 8.04V12H124.493V11.256C124.317 11.544 124.053 11.76 123.701 11.904C123.349 12.048 123.005 12.12 122.669 12.12C122.333 12.12 122.017 12.052 121.721 11.916C121.433 11.772 121.201 11.568 121.025 11.304C120.849 11.04 120.761 10.72 120.761 10.344C120.761 9.808 120.949 9.38 121.325 9.06C121.709 8.732 122.241 8.568 122.921 8.568C123.289 8.568 123.601 8.612 123.857 8.7C124.121 8.78 124.333 8.872 124.493 8.976V8.172C124.493 7.796 124.369 7.54 124.121 7.404C123.881 7.268 123.589 7.2 123.245 7.2C122.829 7.2 122.481 7.268 122.201 7.404C121.921 7.54 121.717 7.656 121.589 7.752ZM121.733 10.296C121.733 10.616 121.841 10.864 122.057 11.04C122.281 11.208 122.569 11.292 122.921 11.292C123.361 11.292 123.733 11.16 124.037 10.896C124.341 10.632 124.493 10.28 124.493 9.84V9.636C124.269 9.524 124.041 9.444 123.809 9.396C123.577 9.348 123.333 9.324 123.077 9.324C122.613 9.324 122.273 9.412 122.057 9.588C121.841 9.756 121.733 9.992 121.733 10.296ZM127.558 11.52C127.558 11.336 127.622 11.18 127.75 11.052C127.886 10.924 128.042 10.86 128.218 10.86C128.402 10.86 128.558 10.924 128.686 11.052C128.814 11.18 128.878 11.336 128.878 11.52C128.878 11.696 128.814 11.852 128.686 11.988C128.558 12.116 128.402 12.18 128.218 12.18C128.042 12.18 127.886 12.116 127.75 11.988C127.622 11.852 127.558 11.696 127.558 11.52ZM131.396 11.52C131.396 11.336 131.46 11.18 131.588 11.052C131.724 10.924 131.88 10.86 132.056 10.86C132.24 10.86 132.396 10.924 132.524 11.052C132.652 11.18 132.716 11.336 132.716 11.52C132.716 11.696 132.652 11.852 132.524 11.988C132.396 12.116 132.24 12.18 132.056 12.18C131.88 12.18 131.724 12.116 131.588 11.988C131.46 11.852 131.396 11.696 131.396 11.52ZM135.233 11.52C135.233 11.336 135.297 11.18 135.425 11.052C135.561 10.924 135.717 10.86 135.893 10.86C136.077 10.86 136.233 10.924 136.361 11.052C136.489 11.18 136.553 11.336 136.553 11.52C136.553 11.696 136.489 11.852 136.361 11.988C136.233 12.116 136.077 12.18 135.893 12.18C135.717 12.18 135.561 12.116 135.425 11.988C135.297 11.852 135.233 11.696 135.233 11.52Z" fill="#333333"/>
<defs>
<clipPath id="clip0">
<rect width="3.69637" height="3.80952" fill="white" transform="translate(4.61731 4.19043)"/>
</clipPath>
</defs>
</svg>
