<svg width="14" height="14" viewBox="0 0 14 14" fill="none" xmlns="http://www.w3.org/2000/svg">
<path d="M6.63673 5.30377C6.9284 5.5772 6.31645 5.24072 6.71749 5.24072C7.11853 5.24072 6.48114 5.46687 6.75458 5.19343C7.04624 4.90176 6.80219 5.47839 6.80219 5.07735C6.80219 4.67631 7.04624 5.35078 6.75458 5.07735C6.48114 4.78568 7.20323 5.07735 6.80219 5.07735C6.40115 5.07735 7.00916 4.94906 6.71749 5.24072C6.71749 4.83968 6.44405 5.51416 6.71749 5.24072C6.71749 5.64176 6.36329 5.0121 6.63673 5.30377ZM4.11072 2.36963C4.9128 1.56755 5.87895 1.1665 7.00916 1.1665C8.13936 1.1665 9.09639 1.56755 9.88025 2.36963C10.6823 3.15348 11.0834 4.11051 11.0834 5.24072C11.0834 5.80583 10.9375 6.45296 10.6459 7.18213C10.3724 7.9113 10.0352 8.59489 9.63416 9.23291C9.23311 9.87093 8.83207 10.4725 8.43103 11.0376C8.04822 11.5845 7.72009 12.022 7.44666 12.3501L7.00916 12.8149C6.89978 12.6873 6.75395 12.5233 6.57166 12.3228C6.38936 12.104 6.06124 11.6847 5.58728 11.0649C5.11332 10.4269 4.69405 9.81624 4.32947 9.23291C3.98311 8.63135 3.6641 7.95687 3.37244 7.20947C3.08077 6.46208 2.93494 5.80583 2.93494 5.24072C2.93494 4.11051 3.32686 3.15348 4.11072 2.36963Z" fill="#1673AD"/>
<g clip-path="url(#clip0)">
<path d="M8.11749 4.98582C7.80351 4.60673 7.40665 4.39795 6.99997 4.39795C6.5933 4.39795 6.19642 4.60673 5.88246 4.98582C5.60025 5.32657 5.43176 5.75601 5.43176 6.13458C5.43176 6.31847 5.48798 6.45855 5.59885 6.55092C5.70828 6.64211 5.85276 6.67295 6.01394 6.67294C6.18545 6.67294 6.37589 6.63801 6.563 6.60369C6.72651 6.57369 6.88094 6.54536 6.99998 6.54536C7.10272 6.54536 7.24758 6.57225 7.40091 6.60072C7.75927 6.66725 8.16545 6.74265 8.40009 6.54756C8.51163 6.45482 8.56819 6.31587 8.56819 6.13458C8.5682 5.75601 8.39972 5.32657 8.11749 4.98582Z" fill="white"/>
<path d="M8.14956 2.92716C8.03468 2.75778 7.87018 2.66064 7.69823 2.66064C7.52628 2.66064 7.36178 2.75779 7.2469 2.92716C7.14138 3.08275 7.08325 3.28708 7.08325 3.50251C7.08325 3.71795 7.14137 3.92228 7.2469 4.07787C7.36178 4.24724 7.52628 4.34438 7.69823 4.34438C7.87019 4.34438 8.03468 4.24724 8.14956 4.07787C8.25509 3.92228 8.31321 3.71795 8.31321 3.50251C8.31321 3.28708 8.2551 3.08274 8.14956 2.92716Z" fill="white"/>
<path d="M6.75307 2.92715C6.63819 2.75778 6.4737 2.66064 6.30175 2.66064C6.12979 2.66064 5.96529 2.75779 5.85042 2.92715C5.74489 3.08275 5.68677 3.28708 5.68677 3.50251C5.68677 3.71795 5.74488 3.92228 5.85042 4.07787C5.9653 4.24725 6.12979 4.34439 6.30175 4.34439C6.4737 4.34439 6.63819 4.24725 6.75307 4.07787C6.8586 3.92228 6.91673 3.71795 6.91673 3.50251C6.91672 3.28708 6.8586 3.08274 6.75307 2.92715Z" fill="white"/>
<path d="M9.30615 4.24876C9.25984 4.09122 9.16057 3.97675 9.02665 3.92645C8.91888 3.88597 8.79723 3.89283 8.6841 3.94578C8.52819 4.01873 8.40076 4.16938 8.3345 4.35908C8.28035 4.5141 8.27359 4.67795 8.31549 4.82048C8.3618 4.97802 8.46107 5.09249 8.595 5.14279C8.64135 5.1602 8.69025 5.16885 8.73994 5.16885C8.80581 5.16885 8.87308 5.15364 8.93756 5.12346C9.09347 5.0505 9.2209 4.89986 9.28716 4.71017V4.71016C9.3413 4.55514 9.34806 4.39128 9.30615 4.24876Z" fill="white"/>
<path d="M5.66546 4.35907C5.59919 4.16936 5.47176 4.01873 5.31586 3.94578C5.20272 3.89283 5.08106 3.88597 4.9733 3.92644C4.83937 3.97676 4.7401 4.09123 4.69379 4.24875C4.65189 4.39128 4.65864 4.55514 4.71279 4.71015V4.71016C4.77907 4.89986 4.9065 5.0505 5.06239 5.12345C5.12689 5.15363 5.19414 5.16884 5.26002 5.16884C5.30971 5.16884 5.35862 5.16018 5.40496 5.14278C5.5389 5.09247 5.63816 4.978 5.68447 4.82047C5.72635 4.67796 5.7196 4.5141 5.66546 4.35907Z" fill="white"/>
</g>
<defs>
<clipPath id="clip0">
<rect width="4.66667" height="4.66667" fill="white" transform="translate(4.66663 2.3335)"/>
</clipPath>
</defs>
</svg>
