<svg width="280" height="243" viewBox="0 0 280 243" fill="none" xmlns="http://www.w3.org/2000/svg">
<g clip-path="url(#clip0)">
<rect width="280" height="197.943" fill="white"/>
<path d="M280.033 -1.29736H0V595.093H280.033V-1.29736Z" fill="white"/>
<path d="M280.033 -1.29736H0V196.662H280.033V-1.29736Z" fill="white"/>
<path d="M280.033 -1.29736H0V196.662H280.033V-1.29736Z" fill="white"/>
<path d="M135.061 196.696C189.733 196.696 234.054 152.373 234.054 97.6991C234.054 43.0249 189.733 -1.29736 135.061 -1.29736C80.3889 -1.29736 36.0684 43.0249 36.0684 97.6991C36.0684 152.373 80.3889 196.696 135.061 196.696Z" fill="white"/>
<path d="M87.5349 87.6222C87.5349 78.0767 79.8024 70.3439 70.2573 70.3439C60.7122 70.3439 52.9797 78.0767 52.9797 87.6222C52.9797 97.1676 60.7122 104.9 70.2573 104.9C79.8024 104.9 87.5349 97.151 87.5349 87.6222ZM199.848 68.1654C190.302 68.1654 182.57 75.8982 182.57 85.4437C182.57 94.9891 190.302 102.722 199.848 102.722C209.393 102.722 217.125 94.9891 217.125 85.4437C217.125 75.8982 209.393 68.1654 199.848 68.1654ZM153.27 78.1433C163.629 80.9204 174.837 72.7552 178.296 59.9005C181.755 47.0457 176.151 34.3407 165.791 31.5635C155.431 28.7863 144.223 36.9515 140.765 49.8063C137.306 62.6776 142.91 75.3661 153.27 78.1433ZM113.958 78.1433C124.318 75.3661 129.922 62.6776 126.464 49.8063C123.005 36.9349 111.797 28.7697 101.437 31.5635C91.0769 34.3407 85.4729 47.0291 88.9317 59.9005C92.3906 72.7719 103.599 80.937 113.958 78.1433ZM187.609 143.049C175.37 163.204 145.138 154.573 132.899 154.573C120.66 154.573 93.3052 166.098 81.0662 145.211C68.8272 124.324 91.8585 90.4991 135.061 90.4991C177.531 90.4991 199.848 122.894 187.609 143.049Z" fill="#00CCCC"/>
<path d="M153.27 78.1435C163.629 80.9207 174.837 72.7555 178.296 59.9008C180.242 52.6502 179.311 45.4496 176.268 40.0449C177.947 46.2145 178.296 55.6269 170.314 65.2888C160.171 77.5615 148.447 73.2211 143.059 70.1613C145.437 74.0859 148.929 76.9795 153.27 78.1435ZM113.958 78.1435C124.318 75.3664 129.922 62.6779 126.464 49.8065C125.699 46.9296 124.518 44.2855 123.071 41.9407C125.865 50.6048 126.031 62.2788 117.767 68.8974C109.286 75.6823 98.4935 72.2899 94.2697 70.5271C99.4081 76.8464 106.891 80.0559 113.958 78.1435ZM87.5349 87.6225C87.5349 83.6313 86.188 79.9728 83.9098 77.046C86.1214 83.2488 85.8388 91.8797 78.1728 96.985C68.1122 103.703 59.0493 98.2488 54.8588 95.4717C57.719 101.059 63.5392 104.901 70.2573 104.901C79.8024 104.901 87.5349 97.1513 87.5349 87.6225ZM213.517 74.8841C215.728 81.087 215.446 89.7178 207.78 94.8231C197.719 101.541 188.656 96.087 184.466 93.3098C187.326 98.8974 193.146 102.739 199.864 102.739C209.409 102.739 217.142 95.006 217.142 85.4606C217.125 81.4695 215.778 77.7943 213.517 74.8841ZM187.076 116.641C191.899 125.555 192.364 135.217 187.609 143.049C175.37 163.204 145.138 154.574 132.899 154.574C120.66 154.574 93.3052 166.098 81.0662 145.211C80.8833 144.878 80.7004 144.546 80.5175 144.23C86.7866 148.82 97.6121 153.809 112.379 149.901C136.857 143.415 155.581 152.778 170.697 147.739C185.048 142.949 192.714 133.587 187.076 116.641Z" fill="#008080"/>
<path d="M70.2573 70.344C60.7122 70.344 52.9797 78.0768 52.9797 87.6222C52.9797 90.4659 53.6615 93.1267 54.8754 95.4881C54.1937 88.9526 54.9253 79.4903 63.4228 75.0169C69.2762 71.9405 74.3481 71.6245 78.2226 72.2731C75.8281 71.0425 73.1341 70.344 70.2573 70.344ZM90.7609 64.8728C89.3641 56.6411 88.6823 42.9549 97.978 37.5669C106.176 32.8108 113.094 33.7587 117.933 35.9039C113.144 31.813 107.157 30.017 101.437 31.547C91.0769 34.3241 85.4729 47.0126 88.9317 59.8839C89.3974 61.6467 90.0126 63.3097 90.7609 64.8728ZM199.848 68.1655C190.302 68.1655 182.57 75.8983 182.57 85.4438C182.57 87.2398 182.853 88.9859 183.352 90.6156C183.401 85.2276 184.848 76.4471 192.996 72.1234C200.247 68.2819 206.981 70.2609 211.272 72.4892C208.245 69.8119 204.238 68.1655 199.848 68.1655ZM151.973 39.0137C159.688 33.5591 167.97 34.4239 173.058 35.7875C171.046 33.792 168.602 32.3119 165.808 31.5636C155.448 28.7864 144.24 36.9516 140.781 49.8063C139.783 53.5314 139.534 57.2564 139.966 60.7154C141.263 54.0635 144.423 44.3518 151.973 39.0137ZM135.061 90.4992C154.849 90.4992 170.264 97.5335 179.859 107.096C170.082 99.1134 153.835 88.6866 114.906 98.4315C87.0527 105.399 79.4532 121.58 77.8069 133.271C77.5408 113.481 99.4579 90.4992 135.061 90.4992Z" fill="white"/>
<path d="M135.061 90.4988C91.8586 90.4988 68.8273 124.34 81.0663 145.21C86.8865 155.138 96.1156 157.733 105.528 157.733C115.904 157.733 126.48 154.556 132.899 154.556C138.553 154.556 148.032 156.402 157.809 156.402C169.217 156.402 181.024 153.891 187.609 143.049C199.848 122.893 177.531 90.4988 135.061 90.4988ZM189.937 114.362C195.84 124.856 196.106 135.981 190.685 144.911C184.516 155.072 173.773 159.994 157.793 159.994C152.039 159.994 146.535 159.396 141.679 158.863C138.17 158.481 135.127 158.148 132.882 158.148C130.355 158.148 126.763 158.764 122.955 159.396C117.634 160.294 111.614 161.308 105.494 161.308C92.5902 161.308 83.5773 156.635 77.9234 146.99C72.4525 137.661 72.9347 126.02 79.2205 115.044C83.8434 106.979 91.1435 100.111 100.323 95.1384C110.367 89.7172 122.356 86.8569 135.028 86.8569C164.112 86.8901 182.454 101.075 189.937 114.362ZM87.535 87.6218C87.535 78.0764 79.8025 70.3436 70.2574 70.3436C60.7124 70.3436 52.9798 78.0764 52.9798 87.6218C52.9798 97.1673 60.7124 104.9 70.2574 104.9C79.8025 104.9 87.535 97.1506 87.535 87.6218ZM70.2574 108.492C58.7501 108.492 49.3713 99.1296 49.3713 87.6052C49.3713 76.0808 58.7335 66.7183 70.2574 66.7183C81.7814 66.7183 91.1435 76.0808 91.1435 87.6052C91.1435 99.1296 81.7814 108.492 70.2574 108.492ZM217.125 85.4433C217.125 75.8979 209.393 68.1651 199.848 68.1651C190.303 68.1651 182.57 75.8979 182.57 85.4433C182.57 94.9888 190.303 102.722 199.848 102.722C209.393 102.722 217.125 95.0054 217.125 85.4433ZM220.734 85.4433C220.734 96.9511 211.372 106.33 199.848 106.33C188.34 106.33 178.962 96.9677 178.962 85.4433C178.962 73.9356 188.324 64.5565 199.848 64.5565C211.355 64.5731 220.734 73.9356 220.734 85.4433ZM153.27 78.1429C154.633 78.5088 156.03 78.6917 157.41 78.6917C166.473 78.6917 175.303 71.0587 178.313 59.9001C181.772 47.0288 176.168 34.3403 165.808 31.5632C164.444 31.1973 163.048 31.0144 161.667 31.0144C152.604 31.0144 143.774 38.6474 140.765 49.8059C137.306 62.6773 142.91 75.3657 153.27 78.1429ZM138.536 69.2128C135.842 63.1097 135.393 55.8924 137.273 48.8747C140.665 36.2361 150.692 27.4224 161.651 27.4224C163.363 27.4224 165.076 27.6385 166.723 28.0876C178.995 31.3802 185.746 46.0809 181.772 60.8314C178.38 73.47 168.352 82.2837 157.394 82.2837C155.681 82.2837 153.968 82.0675 152.322 81.6185C146.252 79.9888 141.347 75.5819 138.536 69.2128ZM88.9319 59.9001C91.9251 71.0587 100.772 78.6917 109.835 78.6917C111.215 78.6917 112.595 78.5088 113.975 78.1429C124.335 75.3491 129.939 62.6773 126.48 49.8059C123.487 38.6474 114.64 31.0144 105.578 31.0144C104.197 31.0144 102.817 31.1973 101.437 31.5632C91.077 34.3403 85.473 47.0288 88.9319 59.9001ZM85.4564 60.8314C81.482 46.0642 88.2334 31.3802 100.506 28.0876C102.152 27.6385 103.865 27.4224 105.578 27.4224V31.0144V27.4224C116.536 27.4224 126.547 36.2527 129.956 48.8747C133.93 63.6418 127.179 78.3258 114.906 81.6185C113.26 82.0675 111.547 82.2837 109.835 82.2837C98.876 82.3003 88.8487 73.47 85.4564 60.8314ZM110.45 104.584C110.816 105.499 110.383 106.563 109.452 106.929C93.6379 113.315 89.6802 128.564 89.6469 128.714C89.4473 129.529 88.7157 130.077 87.9008 130.077C87.7512 130.077 87.6182 130.061 87.4685 130.028C86.504 129.795 85.922 128.814 86.1548 127.849C86.3211 127.151 90.5449 110.671 108.105 103.57C109.02 103.22 110.067 103.653 110.45 104.584Z" fill="#800080"/>
<path d="M194.893 76.5298C192.848 77.6939 191.384 79.5897 190.769 81.8513C190.154 84.113 190.453 86.4744 191.634 88.5198C192.033 89.2183 191.8 90.0997 191.102 90.4988C190.869 90.6318 190.619 90.6983 190.387 90.6983C189.888 90.6983 189.389 90.4322 189.123 89.9666C187.56 87.256 187.161 84.113 187.975 81.103C188.79 78.093 190.736 75.5819 193.446 74.0354C194.145 73.6363 195.026 73.8691 195.425 74.5675C195.841 75.2493 195.592 76.1307 194.893 76.5298ZM199.267 68.1318C196.473 68.1318 193.712 68.8635 191.285 70.2604C187.56 72.389 184.882 75.8314 183.768 79.9722C182.654 84.0963 183.203 88.42 185.348 92.1285C188.208 97.1007 193.563 100.177 199.316 100.177C202.11 100.177 204.871 99.4455 207.298 98.0486C214.981 93.6584 217.658 83.8469 213.235 76.1806C210.358 71.2083 205.02 68.1318 199.267 68.1318Z" fill="#800080"/>
<path d="M208.728 100.56C205.851 102.206 202.592 103.071 199.299 103.071C192.515 103.071 186.196 99.4287 182.82 93.5584C180.292 89.1682 179.644 84.0795 180.957 79.1904C182.288 74.3179 185.431 70.2436 189.837 67.7325C192.714 66.0862 195.973 65.2215 199.266 65.2215C206.051 65.2215 212.37 68.8634 215.745 74.7336C220.95 83.7802 217.807 95.3711 208.728 100.56ZM218.522 73.1372C212.42 62.5441 198.867 58.8856 188.224 64.9554C177.598 71.0419 173.923 84.5618 180.026 95.1549C185.514 104.684 197.021 108.608 207.015 104.883C208.129 104.468 209.243 103.952 210.308 103.337C211.389 102.721 212.386 102.04 213.318 101.275C221.599 94.5562 224.01 82.666 218.522 73.1372Z" fill="#800080"/>
<path d="M210.441 111.752L217.575 107.677L215.23 103.603C214.183 104.451 213.052 105.233 211.838 105.931C210.624 106.63 209.377 107.212 208.113 107.677L210.441 111.752Z" fill="#800080"/>
<path d="M230.296 129.811L219.005 110.188L211.871 114.262L223.162 133.885C224.293 135.848 226.804 136.529 228.766 135.399C229.748 134.833 230.413 133.935 230.695 132.921C230.978 131.906 230.862 130.776 230.296 129.811Z" fill="#800080"/>
</g>
<path d="M43.8813 209.159C45.5415 209.513 46.8751 210.343 47.8821 211.649C48.889 212.928 49.3925 214.398 49.3925 216.058C49.3925 218.453 48.5488 220.358 46.8615 221.773C45.2013 223.161 42.8743 223.855 39.8805 223.855H26.5311V195.197H39.4315C42.3436 195.197 44.6161 195.864 46.2491 197.197C47.9093 198.531 48.7394 200.341 48.7394 202.627C48.7394 204.314 48.2903 205.716 47.3922 206.832C46.5213 207.948 45.351 208.723 43.8813 209.159ZM33.512 206.791H38.0843C39.2274 206.791 40.0983 206.546 40.697 206.056C41.323 205.539 41.636 204.791 41.636 203.811C41.636 202.831 41.323 202.083 40.697 201.566C40.0983 201.048 39.2274 200.79 38.0843 200.79H33.512V206.791ZM38.6558 218.222C39.8261 218.222 40.7242 217.963 41.3502 217.446C42.0034 216.902 42.33 216.126 42.33 215.119C42.33 214.112 41.9898 213.323 41.3094 212.751C40.6562 212.18 39.7445 211.894 38.5742 211.894H33.512V218.222H38.6558Z" fill="#800080"/>
<path d="M59.139 195.197V212.343C59.139 214.058 59.5609 215.378 60.4046 216.303C61.2483 217.228 62.4866 217.691 64.1196 217.691C65.7525 217.691 67.0045 217.228 67.8754 216.303C68.7463 215.378 69.1818 214.058 69.1818 212.343V195.197H76.1627V212.302C76.1627 214.861 75.6183 217.024 74.5297 218.793C73.4411 220.562 71.9714 221.896 70.1207 222.794C68.2972 223.692 66.256 224.141 63.9971 224.141C61.7382 224.141 59.7106 223.706 57.9143 222.835C56.1453 221.937 54.7437 220.603 53.7094 218.834C52.6752 217.038 52.1581 214.861 52.1581 212.302V195.197H59.139Z" fill="#800080"/>
<path d="M91.2849 224.141C89.1892 224.141 87.3113 223.801 85.6511 223.121C83.991 222.44 82.6574 221.433 81.6504 220.1C80.6706 218.766 80.1535 217.16 80.0991 215.282H87.5291C87.6379 216.344 88.0053 217.16 88.6313 217.732C89.2573 218.276 90.0738 218.548 91.0807 218.548C92.115 218.548 92.9314 218.317 93.5302 217.854C94.1289 217.364 94.4283 216.698 94.4283 215.854C94.4283 215.146 94.1834 214.561 93.6935 214.099C93.2308 213.636 92.6457 213.255 91.938 212.955C91.2576 212.656 90.2779 212.316 88.9987 211.935C87.148 211.363 85.6375 210.792 84.4673 210.22C83.297 209.649 82.29 208.805 81.4463 207.689C80.6026 206.573 80.1807 205.117 80.1807 203.321C80.1807 200.654 81.1469 198.572 83.0792 197.075C85.0116 195.551 87.5291 194.789 90.6317 194.789C93.7887 194.789 96.3334 195.551 98.2658 197.075C100.198 198.572 101.232 200.667 101.368 203.362H93.816C93.7615 202.436 93.4213 201.715 92.7954 201.198C92.1694 200.654 91.3665 200.382 90.3867 200.382C89.543 200.382 88.8626 200.613 88.3455 201.076C87.8284 201.511 87.5699 202.151 87.5699 202.994C87.5699 203.92 88.0053 204.641 88.8762 205.158C89.7472 205.675 91.108 206.233 92.9586 206.832C94.8093 207.458 96.3062 208.057 97.4493 208.628C98.6196 209.2 99.6266 210.03 100.47 211.118C101.314 212.207 101.736 213.609 101.736 215.323C101.736 216.956 101.314 218.439 100.47 219.773C99.6538 221.107 98.4563 222.168 96.8778 222.957C95.2992 223.747 93.4349 224.141 91.2849 224.141Z" fill="#800080"/>
<path d="M126.431 228.754L122.757 223.815C121.669 224.032 120.607 224.141 119.573 224.141C116.879 224.141 114.402 223.515 112.143 222.263C109.911 221.011 108.129 219.27 106.795 217.038C105.489 214.779 104.836 212.248 104.836 209.445C104.836 206.641 105.489 204.124 106.795 201.892C108.129 199.66 109.911 197.919 112.143 196.667C114.402 195.415 116.879 194.789 119.573 194.789C122.267 194.789 124.73 195.415 126.962 196.667C129.221 197.919 130.99 199.66 132.269 201.892C133.576 204.124 134.229 206.641 134.229 209.445C134.229 211.894 133.725 214.139 132.718 216.181C131.739 218.195 130.364 219.868 128.595 221.202L134.882 228.754H126.431ZM111.98 209.445C111.98 211.976 112.66 214.003 114.021 215.527C115.409 217.024 117.26 217.773 119.573 217.773C121.859 217.773 123.683 217.011 125.043 215.487C126.431 213.962 127.125 211.948 127.125 209.445C127.125 206.913 126.431 204.9 125.043 203.403C123.683 201.879 121.859 201.116 119.573 201.116C117.26 201.116 115.409 201.865 114.021 203.362C112.66 204.859 111.98 206.886 111.98 209.445Z" fill="#800080"/>
<path d="M143.949 195.197V212.343C143.949 214.058 144.371 215.378 145.215 216.303C146.059 217.228 147.297 217.691 148.93 217.691C150.563 217.691 151.815 217.228 152.686 216.303C153.557 215.378 153.992 214.058 153.992 212.343V195.197H160.973V212.302C160.973 214.861 160.429 217.024 159.34 218.793C158.252 220.562 156.782 221.896 154.931 222.794C153.108 223.692 151.066 224.141 148.808 224.141C146.549 224.141 144.521 223.706 142.725 222.835C140.956 221.937 139.554 220.603 138.52 218.834C137.486 217.038 136.969 214.861 136.969 212.302V195.197H143.949Z" fill="#800080"/>
<path d="M173.898 200.609V206.406H183.247V211.795H173.898V218.081H184.471V223.674H166.917V195.016H184.471V200.609H173.898Z" fill="#800080"/>
<path d="M234.407 200.203V195.138H256.036V200.203H248.532V222.527H241.864V200.203H234.407V200.203ZM230.527 195.045V200.133H220.607V206.01H229.342V211.098H220.607V217.463H230.527V222.527H213.939V195.045H230.527ZM195.725 206.8H199.861C200.883 206.8 201.673 206.498 202.253 205.894C202.834 205.29 203.136 204.524 203.136 203.548C203.136 202.572 202.834 201.759 202.23 201.155C201.626 200.528 200.836 200.203 199.861 200.203H195.725V206.8V206.8ZM209.92 203.525C209.92 205.383 209.246 207.149 207.922 208.868C207.225 209.75 206.18 210.471 204.786 211.051C203.392 211.609 201.742 211.888 199.861 211.888H195.725V222.551H189.034V195.138H199.861C203.043 195.138 205.506 195.951 207.272 197.601C209.037 199.25 209.92 201.225 209.92 203.525Z" stroke="#800080" stroke-width="1.14324"/>
<defs>
<clipPath id="clip0">
<rect width="280" height="197.943" fill="white"/>
</clipPath>
</defs>
</svg>
