<svg width="18" height="18" viewBox="0 0 18 18" fill="none" xmlns="http://www.w3.org/2000/svg">
<path d="M9.00709 0.0975267C8.45555 0.0975269 8.01007 0.543004 8.01007 1.09455L8.003 8.00298L1.0875 8.00298C0.535954 8.00298 0.0904763 8.44846 0.0904763 9C0.0904763 9.55154 0.535954 9.99702 1.0875 9.99702L8.003 9.99702L8.003 16.9125C8.003 17.4641 8.44848 17.9095 9.00002 17.9095C9.55156 17.9095 9.99704 17.4641 9.99704 16.9125L9.99704 9.99702L16.9125 9.99702C17.4641 9.99702 17.9096 9.55154 17.9096 9C17.9096 8.44846 17.4641 8.00298 16.9125 8.00298L9.99704 8.00298L9.99704 1.08748C9.99704 0.550075 9.54449 0.0975266 9.00709 0.0975267Z" fill="#00CCCC"/>
</svg>
