<svg width="4" height="14" viewBox="0 0 4 14" fill="none" xmlns="http://www.w3.org/2000/svg">
<path d="M1.99997 3.11114C2.85908 3.11114 3.55553 2.41468 3.55553 1.55557C3.55553 0.696451 2.85908 0 1.99997 0C1.14085 0 0.444397 0.696451 0.444397 1.55557C0.444397 2.41468 1.14085 3.11114 1.99997 3.11114Z" fill="#828282"/>
<path d="M1.99997 8.55547C2.85908 8.55547 3.55553 7.85902 3.55553 6.9999C3.55553 6.14079 2.85908 5.44434 1.99997 5.44434C1.14085 5.44434 0.444397 6.14079 0.444397 6.9999C0.444397 7.85902 1.14085 8.55547 1.99997 8.55547Z" fill="#828282"/>
<path d="M1.99997 13.9998C2.85908 13.9998 3.55553 13.3034 3.55553 12.4442C3.55553 11.5851 2.85908 10.8887 1.99997 10.8887C1.14085 10.8887 0.444397 11.5851 0.444397 12.4442C0.444397 13.3034 1.14085 13.9998 1.99997 13.9998Z" fill="#828282"/>
</svg>
