<svg width="22" height="18" viewBox="0 0 22 18" fill="none" xmlns="http://www.w3.org/2000/svg">
<path d="M18.66 0.990166C16.02 -0.809834 12.76 0.0301659 11 2.09017C9.23997 0.0301659 5.97997 -0.819834 3.33997 0.990166C1.93997 1.95017 1.05997 3.57017 0.999969 5.28017C0.859969 9.16017 4.29997 12.2702 9.54997 17.0402L9.64997 17.1302C10.41 17.8202 11.58 17.8202 12.34 17.1202L12.45 17.0202C17.7 12.2602 21.13 9.15017 21 5.27017C20.94 3.57017 20.06 1.95017 18.66 0.990166ZM11.1 15.5502L11 15.6502L10.9 15.5502C6.13997 11.2402 2.99997 8.39017 2.99997 5.50017C2.99997 3.50017 4.49997 2.00017 6.49997 2.00017C8.03997 2.00017 9.53997 2.99017 10.07 4.36017H11.94C12.46 2.99017 13.96 2.00017 15.5 2.00017C17.5 2.00017 19 3.50017 19 5.50017C19 8.39017 15.86 11.2402 11.1 15.5502Z" fill="#800080"/>
</svg>
