<svg width="60" height="60" viewBox="0 0 60 60" fill="none" xmlns="http://www.w3.org/2000/svg">
<rect width="60" height="60" fill="white"/>
<path d="M6.09363 59.0001C6.09363 59.5521 6.54132 59.9998 7.09339 59.9998H53.0938C53.6459 59.9998 54.0936 59.5521 54.0936 59.0001V53.0001C54.0936 49.061 52.718 45.246 50.2035 42.2138C50.9858 41.2223 51.0426 39.8403 50.3436 38.7883C50.014 38.2861 49.5397 37.8957 48.9835 37.6686C49.8515 36.8067 50.6049 35.8376 51.2261 34.7842C52.4735 32.6332 53.1185 30.186 53.0938 27.6999C53.0631 24.9826 52.4415 22.3051 51.2724 19.8519C50.6484 18.5033 49.8922 17.2202 49.0147 16.0209C49.3269 10.584 48.0318 5.17502 45.2907 0.468734C45.1447 0.235731 44.909 0.073224 44.6393 0.0192075C44.3697 -0.0343511 44.0896 0.0251586 43.8653 0.184461C41.1264 2.09975 38.6728 4.39362 36.5781 6.99785C32.3442 5.68315 27.8114 5.68635 23.5794 7.00655C21.4883 4.40049 19.0379 2.10342 16.3018 0.184461C16.0775 0.0251586 15.7978 -0.0343511 15.5277 0.0192075C15.2581 0.073224 15.0223 0.235731 14.8763 0.468734C12.1274 5.17686 10.8361 10.5936 11.1652 16.0355C10.2909 17.2298 9.5374 18.5079 8.9153 19.8515C7.7457 22.3042 7.12406 24.9826 7.09339 27.6999C7.06821 30.186 7.7132 32.6327 8.96016 34.7838C9.5818 35.838 10.3357 36.8076 11.2041 37.67C10.6479 37.8966 10.1742 38.2866 9.8441 38.7883C9.14509 39.8403 9.2014 41.2223 9.98418 42.2138C7.46967 45.246 6.09363 49.061 6.09363 53.0001V59.0001ZM23.2498 57.9998C23.8 54.6151 26.6757 52.0974 30.1034 51.9999C33.5317 52.0974 36.4073 54.6151 36.9576 57.9998H23.2498ZM11.8097 41.2259C11.5891 41.0863 11.4335 40.8638 11.379 40.6084C11.3254 40.3589 11.3744 40.098 11.5159 39.8856C11.7031 39.6031 12.0194 39.4342 12.3582 39.4356C12.5527 39.4356 12.7431 39.4914 12.907 39.5963C15.3359 41.1504 18.0038 42.2948 20.8039 42.9833C23.8458 43.7134 26.9655 44.0719 30.0934 44.0513C33.2195 44.0723 36.3364 43.7148 39.3759 42.9856C42.1788 42.2966 44.8499 41.1513 47.2816 39.5958C47.7467 39.2969 48.3651 39.4255 48.6723 39.8851C48.8132 40.098 48.8627 40.3589 48.8091 40.6084C48.7547 40.8634 48.5995 41.0858 48.3788 41.225C45.7609 42.8995 42.8856 44.1327 39.868 44.8752C36.6673 45.6434 33.3852 46.021 30.0934 46C26.7993 46.021 23.5148 45.6424 20.3118 44.8734C17.297 44.1318 14.4245 42.8995 11.8093 41.2259H11.8097ZM10.6873 33.7753C9.62026 31.9296 9.07002 29.8312 9.09337 27.6999C9.1245 25.2723 9.68343 22.88 10.7308 20.6896C11.3465 19.3603 12.1036 18.1014 12.9894 16.9346C13.0979 16.7899 13.1661 16.6187 13.1863 16.4388C13.1913 16.4004 13.1936 16.361 13.1936 16.3221V16.3198C13.1936 16.2818 13.1917 16.2433 13.1872 16.2054C12.8521 11.4528 13.8427 6.69984 16.0487 2.47695C18.093 4.00818 19.9539 5.77058 21.5936 7.7289C21.4379 7.7939 21.2809 7.85296 21.1257 7.92162C20.6277 8.14913 20.4052 8.73461 20.6263 9.23587C20.8479 9.73666 21.4311 9.96646 21.9346 9.75085C27.1261 7.42723 33.0615 7.42723 38.253 9.75085C38.7566 9.96646 39.3398 9.73666 39.5613 9.23587C39.7824 8.73461 39.56 8.14913 39.0615 7.92162C38.8985 7.84975 38.7332 7.78704 38.5694 7.71883C40.2127 5.76417 42.0749 4.00498 44.1202 2.47558C46.3322 6.69893 47.3251 11.4542 46.9886 16.2095C46.9634 16.4599 47.0339 16.7107 47.1854 16.9117C48.0753 18.0859 48.8361 19.352 49.4555 20.6883C50.5033 22.8791 51.0623 25.2714 51.0938 27.6999C51.1172 29.8312 50.5669 31.9296 49.5004 33.7749C48.4086 35.5881 46.9044 37.1179 45.1099 38.2404C43.0454 39.5359 40.7817 40.4816 38.4096 41.0396C35.6873 41.6983 32.8944 42.0206 30.0934 42C27.2923 42.0211 24.4986 41.6988 21.7758 41.0401C19.4041 40.4816 17.1413 39.5363 15.0773 38.2413C13.2828 37.1188 11.7786 35.5885 10.6869 33.7753H10.6873ZM8.09361 53.0001C8.09315 49.4918 9.33049 46.0956 11.5873 43.4099C14.1526 44.9453 16.9308 46.0929 19.8316 46.8143C23.1921 47.6227 26.6377 48.0205 30.0934 47.9999C33.5468 48.021 36.9901 47.6241 40.3482 46.8166C43.2514 46.0938 46.0319 44.9457 48.5999 43.4099C50.8567 46.0956 52.0941 49.4918 52.0936 53.0001V58.0003L44.7648 57.9998C43.223 54.0283 44.817 51.7074 44.8989 51.5934C45.1122 51.3064 45.1562 50.9278 45.0142 50.6001C44.8723 50.2718 44.5666 50.0443 44.2118 50.0031C43.8566 49.9619 43.5068 50.113 43.2935 50.4C43.1969 50.5296 41.1521 53.3613 42.6462 57.9998H38.9937C38.4123 53.5037 34.6358 50.1052 30.1034 49.9999C25.5711 50.1052 21.7945 53.5037 21.2136 57.9998H17.5405C19.0351 53.3608 16.9907 50.5291 16.8932 50.4C16.5618 49.9642 15.9411 49.8763 15.5012 50.2027C15.0617 50.5296 14.9665 51.1489 15.2879 51.5925C15.3606 51.6937 16.9683 54.0164 15.4224 58.0003H8.09361V53.0001Z" fill="#00CCCC"/>
<path d="M25.2462 26.1499C24.9454 26.8572 25.0988 27.6756 25.6348 28.2259L28.7613 31.4362C28.8616 31.5374 28.9733 31.6266 29.0937 31.7026V32.9999C29.0937 34.1045 28.1983 34.9999 27.0937 34.9999C25.9891 34.9999 25.0937 34.1045 25.0937 32.9999C25.0937 32.4474 24.646 31.9997 24.0935 31.9997C23.5414 31.9997 23.0938 32.4474 23.0938 32.9999C23.0979 34.8649 24.3892 36.4794 26.2075 36.8932C26.5435 38.755 28.2038 40.082 30.0934 40.0001C31.9836 40.082 33.6439 38.755 33.9799 36.8932C35.7981 36.4794 37.0895 34.8649 37.0936 32.9999C37.0936 32.4474 36.6459 31.9997 36.0938 31.9997C35.5413 31.9997 35.0936 32.4474 35.0936 32.9999C35.0936 34.1045 34.1982 34.9999 33.0936 34.9999C31.9891 34.9999 31.0937 34.1045 31.0937 32.9999V31.7026C31.2145 31.6262 31.3262 31.5369 31.4265 31.4353L34.5525 28.2259C35.0886 27.6756 35.2419 26.8572 34.9412 26.1499C34.6519 25.4546 33.973 25.0014 33.22 25H26.9674C26.2143 25.0014 25.5355 25.4546 25.2462 26.1499ZM31.9479 36.8126C31.6796 37.5904 30.9124 38.0816 30.0934 38.0001C29.2754 38.0811 28.5087 37.5895 28.2418 36.8117C28.9591 36.5957 29.6009 36.1818 30.0934 35.6174C30.5869 36.1828 31.2296 36.597 31.9479 36.8126ZM32.9549 27L30.0925 29.9388L27.161 27H32.9549Z" fill="#00CCCC"/>
<path d="M20.0926 29.9976C20.5334 29.998 20.9225 29.7096 21.0503 29.288C21.1784 28.8659 21.015 28.4105 20.6483 28.1656C18.0501 26.6709 15.0901 25.9207 12.0936 25.9976C11.5411 25.9976 11.0934 26.4453 11.0934 26.9978C11.0934 27.5499 11.5411 27.9976 12.0936 27.9976C14.6951 27.9358 17.2659 28.5689 19.5415 29.8318C19.7049 29.9399 19.8967 29.998 20.0926 29.9976Z" fill="#00CCCC"/>
<path d="M20.0936 30.999C17.7521 31.1116 15.4857 31.861 13.5388 33.167C13.2381 33.3638 13.066 33.7067 13.0879 34.0656C13.1099 34.424 13.3228 34.7435 13.6455 34.9019C13.9682 35.0603 14.3509 35.0333 14.6485 34.831C16.2708 33.7502 18.1503 33.1185 20.0958 32.999C20.6484 32.9985 21.0956 32.5499 21.0947 31.9979C21.0942 31.4453 20.6461 30.9981 20.0936 30.999Z" fill="#00CCCC"/>
<path d="M39.2615 29.5525C39.5682 30.0117 40.1889 30.1362 40.6485 29.8295C42.9195 28.5592 45.4922 27.9261 48.0937 27.9975C48.6462 27.9975 49.0939 27.5498 49.0939 26.9978C49.0939 26.4452 48.6462 25.9976 48.0937 25.9976C45.0971 25.9207 42.1372 26.6709 39.5389 28.1655C39.0793 28.4722 38.9553 29.0929 39.2615 29.5525Z" fill="#00CCCC"/>
<path d="M40.0937 30.999C39.5412 30.999 39.0935 31.4467 39.0935 31.9988C39.0935 32.5513 39.5412 32.999 40.0937 32.999C42.0397 33.1116 43.9202 33.7442 45.5389 34.831C45.8364 35.0333 46.2191 35.0603 46.5418 34.9019C46.8645 34.7435 47.0774 34.424 47.0994 34.0656C47.1213 33.7067 46.9492 33.3638 46.6485 33.167C44.7016 31.861 42.4352 31.1116 40.0937 30.999Z" fill="#00CCCC"/>
<path d="M16.0946 22.9991C16.2498 22.9991 16.4027 22.963 16.5409 22.8934C21.7549 20.2851 24.2891 22.6137 24.3866 22.7062C24.6983 23.0175 25.1771 23.0884 25.5658 22.8801C25.9539 22.6723 26.1604 22.2347 26.0743 21.8025C25.6729 19.7953 23.4884 15.999 18.0937 15.999C17.5416 15.999 17.0939 16.4467 17.0939 16.9988C17.0939 17.5513 17.5416 17.999 18.0937 17.999C19.8602 17.9015 21.5823 18.5721 22.8178 19.8383C20.3527 19.419 17.8185 19.8662 15.6464 21.1045C15.2312 21.3118 15.0133 21.7778 15.1205 22.2292C15.2271 22.681 15.6304 22.9996 16.0946 22.9991Z" fill="#00CCCC"/>
<path d="M34.6156 22.8705C35.0001 23.0788 35.4753 23.0157 35.7921 22.7144C35.8983 22.6142 38.4338 20.2869 43.6465 22.8934C43.966 23.0532 44.3464 23.0303 44.6448 22.8335C44.9429 22.6366 45.1136 22.2956 45.0921 21.939C45.0706 21.5824 44.8605 21.2642 44.5409 21.1045C42.3601 19.8617 39.8149 19.4158 37.3416 19.8447C38.5826 18.5689 40.3171 17.8955 42.0937 17.999C42.6458 17.999 43.0935 17.5513 43.0935 16.9988C43.0935 16.4467 42.6458 15.999 42.0937 15.999C36.6989 15.999 34.5144 19.7953 34.1134 21.8026C34.0296 22.2301 34.2329 22.6623 34.6156 22.8705Z" fill="#00CCCC"/>
</svg>
