<svg width="21" height="21" viewBox="0 0 21 21" fill="none" xmlns="http://www.w3.org/2000/svg">
<path d="M10.067 20.7507L10.061 20.7497H10.045C6.863 20.7497 4.83 19.2427 4.63 19.1557L0.880005 20.1307L1.885 16.4857L1.646 16.1107C0.656005 14.5347 0.130005 12.7197 0.130005 10.8507C0.130005 2.05772 10.875 -2.33928 17.093 3.87572C23.296 10.0257 18.941 20.7507 10.067 20.7507Z" fill="#4CAF50"/>
<path d="M15.507 13.3067L15.498 13.3817C15.197 13.2317 13.731 12.5147 13.458 12.4157C12.845 12.1887 13.018 12.3797 11.841 13.7277C11.666 13.9227 11.492 13.9377 11.195 13.8027C10.895 13.6527 9.93201 13.3377 8.79201 12.3177C7.90401 11.5227 7.30802 10.5477 7.13202 10.2477C6.83902 9.74168 7.45202 9.66968 8.01002 8.61368C8.11002 8.40368 8.05901 8.23868 7.98501 8.08968C7.91001 7.93968 7.31301 6.46968 7.06301 5.88368C6.82301 5.29968 6.57602 5.37368 6.39102 5.37368C5.81502 5.32368 5.39402 5.33168 5.02302 5.71768C3.40902 7.49168 3.81602 9.32168 5.19702 11.2677C7.91102 14.8197 9.35702 15.4737 12.001 16.3817C12.715 16.6087 13.366 16.5767 13.881 16.5027C14.455 16.4117 15.648 15.7817 15.897 15.0767C16.152 14.3717 16.152 13.7867 16.077 13.6517C16.003 13.5167 15.807 13.4417 15.507 13.3067Z" fill="#FAFAFA"/>
</svg>
